<svg width="775" height="528" viewBox="0 0 775 528" fill="none" xmlns="http://www.w3.org/2000/svg">
<g clip-path="url(#clip0_9_2)">
<path d="M579.881 297.852C582.655 299.327 586.101 298.274 587.576 295.5C589.052 292.725 587.999 289.28 585.225 287.804C582.45 286.328 579.004 287.381 577.529 290.156C576.053 292.93 577.106 296.376 579.881 297.852Z" fill="#FF6584"/>
<path d="M575.742 361.399C578.517 362.874 581.963 361.821 583.438 359.047C584.914 356.272 583.861 352.827 581.086 351.351C578.312 349.875 574.866 350.928 573.39 353.703C571.915 356.477 572.968 359.923 575.742 361.399Z" fill="#664DFF"/>
<path d="M558.645 211.757C563.73 214.887 568 219.177 571.107 224.276C574.213 229.376 576.067 235.139 576.516 241.093C576.634 242.775 576.928 244.71 575.553 245.975C575.046 246.47 574.385 246.777 573.68 246.848C572.975 246.919 572.267 246.748 571.671 246.364C570.979 245.785 570.498 244.993 570.302 244.113C570.106 243.232 570.205 242.311 570.586 241.493C570.966 240.675 571.606 240.005 572.406 239.587C573.206 239.17 574.121 239.028 575.01 239.183C579.486 239.567 581.886 243.929 583.84 247.431C588.285 255.407 593.63 263.324 601.567 268.184C608.914 272.683 618.639 274.037 626.364 269.699C627.713 268.944 626.448 266.9 625.102 267.655C617.44 271.96 607.728 269.799 600.902 264.875C596.883 261.849 593.412 258.158 590.639 253.961C589.174 251.834 587.83 249.627 586.558 247.381C585.408 245.131 584.059 242.988 582.53 240.976C579.889 237.791 575.354 235.518 571.297 237.461C567.508 239.271 566.57 245.139 569.808 247.937C570.532 248.526 571.39 248.925 572.305 249.1C573.221 249.275 574.166 249.221 575.055 248.941C575.945 248.661 576.751 248.165 577.401 247.498C578.052 246.83 578.527 246.012 578.784 245.115C579.35 243.164 578.942 240.743 578.682 238.763C577.908 232.804 575.808 227.093 572.535 222.053C569.262 217.012 564.901 212.77 559.772 209.638C558.444 208.846 557.319 210.968 558.645 211.757Z" fill="#CCCCCC"/>
<path d="M722.275 202.635C718.231 200.146 714.835 196.734 712.364 192.679C709.893 188.624 708.418 184.041 708.061 179.306C707.966 177.967 707.733 176.427 708.826 175.423C709.229 175.029 709.754 174.785 710.315 174.728C710.876 174.672 711.44 174.808 711.914 175.113C712.461 175.575 712.841 176.204 712.996 176.903C713.15 177.603 713.07 178.334 712.768 178.983C712.466 179.633 711.959 180.165 711.324 180.497C710.69 180.83 709.964 180.945 709.258 180.824C705.699 180.516 703.791 177.05 702.235 174.264C698.699 167.921 694.448 161.623 688.133 157.756C682.293 154.179 674.554 153.1 668.41 156.551C667.335 157.154 668.343 158.78 669.413 158.176C675.506 154.754 683.233 156.466 688.661 160.387C691.857 162.793 694.618 165.73 696.824 169.068C697.989 170.759 699.057 172.515 700.068 174.304C700.984 176.094 702.056 177.798 703.272 179.398C705.373 181.932 708.976 183.738 712.205 182.193C712.923 181.802 713.541 181.249 714.008 180.577C714.474 179.906 714.778 179.134 714.893 178.324C715.008 177.514 714.932 176.688 714.671 175.913C714.409 175.138 713.971 174.434 713.389 173.859C712.814 173.391 712.131 173.073 711.403 172.934C710.675 172.795 709.923 172.838 709.216 173.06C708.508 173.283 707.867 173.677 707.35 174.208C706.832 174.739 706.454 175.39 706.25 176.103C705.948 177.776 705.976 179.492 706.331 181.155C706.947 185.896 708.618 190.439 711.222 194.448C713.827 198.458 717.297 201.832 721.378 204.322C722.434 204.953 723.33 203.264 722.275 202.635Z" fill="#CCCCCC"/>
<path d="M697.703 258.105L692.679 255.433L683.899 271.941L688.923 274.613L697.703 258.105Z" fill="#CCCCCC"/>
<path d="M622.575 203.382L627.927 201.745L622.549 184.161L617.197 185.798L622.575 203.382Z" fill="#B3B3B3"/>
<path d="M526.825 380.032L528.462 385.383L546.046 380.005L544.409 374.653L526.825 380.032Z" fill="#FF6584"/>
<path d="M386.694 382.058C438.035 382.058 479.655 340.438 479.655 289.097C479.655 237.756 438.035 196.136 386.694 196.136C335.353 196.136 293.733 237.756 293.733 289.097C293.733 340.438 335.353 382.058 386.694 382.058Z" fill="#664DFF"/>
<path d="M377.477 324.559C375.386 324.562 373.35 323.886 371.677 322.631L371.577 322.553L349.73 305.841C347.707 304.267 346.389 301.957 346.063 299.415C345.737 296.873 346.429 294.306 347.988 292.272C349.547 290.238 351.847 288.903 354.386 288.558C356.926 288.213 359.499 288.887 361.544 290.431L375.695 301.283L409.134 257.658C409.909 256.646 410.875 255.796 411.979 255.158C413.082 254.52 414.3 254.105 415.564 253.938C416.827 253.771 418.111 253.854 419.343 254.184C420.574 254.513 421.728 255.082 422.74 255.858L422.533 256.146L422.746 255.858C424.787 257.425 426.123 259.739 426.461 262.29C426.798 264.842 426.109 267.423 424.546 269.467L385.214 320.757C384.304 321.939 383.134 322.895 381.795 323.551C380.456 324.208 378.983 324.547 377.492 324.543L377.477 324.559Z" fill="white"/>
<path d="M324.586 219.815C323.69 219.812 322.832 219.455 322.198 218.821C321.565 218.187 321.208 217.329 321.206 216.433C321.202 216.167 321.232 215.901 321.295 215.643L338.795 138.552C338.928 137.971 339.21 137.435 339.615 136.998C340.02 136.561 340.533 136.238 341.102 136.062C341.671 135.885 342.276 135.861 342.857 135.992C343.438 136.123 343.975 136.404 344.413 136.808L402.437 190.536C402.874 190.941 403.196 191.453 403.373 192.022C403.549 192.59 403.573 193.195 403.443 193.776C403.312 194.357 403.031 194.893 402.628 195.332C402.225 195.77 401.714 196.094 401.146 196.273L325.606 219.663C325.275 219.764 324.932 219.815 324.586 219.815Z" fill="#3F3D56"/>
<path d="M372.044 163.459L335.597 156.206L336.171 153.675L368.397 160.081L372.044 163.459Z" fill="white"/>
<path d="M400.743 190.044L331.058 176.178L331.632 173.634L397.09 186.652L400.743 190.044Z" fill="white"/>
<path d="M375.813 203.298L370.583 204.915L326.531 196.149L327.104 193.605L375.813 203.298Z" fill="white"/>
<path d="M189.916 332.571C194.045 331.541 196.558 327.359 195.528 323.23C194.499 319.1 190.317 316.587 186.187 317.617C182.058 318.646 179.545 322.829 180.574 326.958C181.604 331.088 185.786 333.601 189.916 332.571Z" fill="#664DFF"/>
<path d="M121.399 149.963C124.348 149.228 126.143 146.241 125.408 143.291C124.672 140.342 121.685 138.547 118.736 139.282C115.786 140.018 113.991 143.005 114.727 145.955C115.462 148.904 118.449 150.699 121.399 149.963Z" fill="#FF6584"/>
<path d="M153.093 294.1C156.043 293.365 157.838 290.378 157.102 287.428C156.367 284.479 153.38 282.684 150.43 283.419C147.481 284.155 145.686 287.142 146.421 290.091C147.157 293.041 150.144 294.836 153.093 294.1Z" fill="#664DFF"/>
<path d="M181.34 380.089C184.29 379.354 186.085 376.367 185.349 373.417C184.614 370.468 181.627 368.673 178.677 369.408C175.728 370.144 173.933 373.131 174.668 376.08C175.404 379.03 178.391 380.825 181.34 380.089Z" fill="#E6E6E6"/>
<path d="M86.9377 201.679C89.8871 200.944 91.682 197.957 90.9466 195.007C90.2112 192.058 87.2241 190.263 84.2746 190.998C81.3251 191.734 79.5302 194.721 80.2656 197.67C81.001 200.62 83.9882 202.415 86.9377 201.679Z" fill="#CCCCCC"/>
<path d="M232.59 300.201C228.241 298.723 224.305 296.235 221.103 292.942C217.902 289.649 215.526 285.644 214.171 281.255C213.794 280.01 213.244 278.611 214.058 277.429C214.354 276.971 214.797 276.627 215.314 276.454C215.831 276.28 216.391 276.287 216.904 276.473C217.519 276.791 218.013 277.303 218.309 277.929C218.604 278.556 218.686 279.262 218.541 279.939C218.396 280.617 218.032 281.228 217.505 281.678C216.979 282.128 216.318 282.392 215.627 282.43C212.204 282.907 209.656 280.045 207.595 277.753C202.893 272.536 197.534 267.506 190.747 265.216C184.466 263.096 176.94 263.744 171.888 268.318C171.004 269.119 172.303 270.432 173.186 269.635C178.196 265.099 185.854 265.057 191.813 267.584C195.344 269.166 198.579 271.342 201.377 274.016C202.839 275.36 204.224 276.786 205.562 278.254C206.811 279.745 208.189 281.122 209.68 282.369C212.206 284.306 215.992 285.236 218.707 283.085C219.3 282.563 219.764 281.908 220.059 281.174C220.355 280.441 220.475 279.648 220.409 278.859C220.343 278.071 220.094 277.309 219.682 276.634C219.269 275.959 218.704 275.39 218.032 274.973C217.389 274.655 216.677 274.501 215.96 274.526C215.243 274.551 214.543 274.753 213.923 275.115C213.304 275.477 212.783 275.986 212.409 276.599C212.035 277.211 211.819 277.906 211.779 278.623C211.854 280.266 212.249 281.878 212.941 283.37C214.541 287.709 217.094 291.634 220.413 294.855C223.731 298.077 227.729 300.513 232.114 301.984C233.246 302.352 233.726 300.568 232.597 300.201L232.59 300.201Z" fill="#CCCCCC"/>
<path d="M99.6039 262.769L104.241 265.555L113.396 250.319L108.759 247.533L99.6039 262.769Z" fill="#B3B3B3"/>
<path d="M98.9156 391.275C103.045 390.245 105.558 386.063 104.528 381.934C103.499 377.804 99.3165 375.291 95.1871 376.321C91.0576 377.35 88.5446 381.533 89.5742 385.662C90.6038 389.792 94.7861 392.305 98.9156 391.275Z" fill="#664DFF"/>
</g>
<defs>
<clipPath id="clip0_9_2">
<rect width="775" height="528" fill="white"/>
</clipPath>
</defs>
</svg>
