<svg width="1090" height="196" viewBox="0 0 1090 196" fill="none" xmlns="http://www.w3.org/2000/svg">
<g clip-path="url(#clip0_162_2954)">
<mask id="path-1-inside-1_162_2954" fill="white">
<path d="M0 196H1090V20C1090 8.9543 1081.05 0 1070 0H20C8.95432 0 0 8.9543 0 20V196Z"/>
</mask>
<path d="M0 196H1090V20C1090 8.9543 1081.05 0 1070 0H20C8.95432 0 0 8.9543 0 20V196Z" fill="white"/>
<path d="M132.979 -7.02339V42.9647L89.7009 67.9588L46.4295 42.9647V-7.02339M132.979 -7.02339L89.7009 -32.0174M132.979 -7.02339L176.25 -32.0174M89.7009 -32.0174L46.4295 -7.02339M89.7009 -32.0174V-82.0056M46.4295 -7.02339L3.15805 -32.0174V-82.0056L46.4295 -107M89.7009 -82.0056L46.4295 -107M89.7009 -82.0056L132.979 -107M46.4295 -107V-156.988L89.7009 -181.982L132.979 -156.988M132.979 -107V-156.988M132.979 -107L176.25 -82.0056M132.979 -156.988L176.25 -181.982L219.522 -156.988M176.25 -32.0174V-82.0056M176.25 -32.0174L219.522 -7.02339L262.8 -32.0174M176.25 -82.0056L219.522 -107M219.522 -107V-156.988M219.522 -107L262.8 -82.0056M219.522 -156.988L262.8 -181.982L306.071 -156.988V-107M262.8 267.911L219.522 292.905L176.25 267.911V217.923L219.522 192.929L262.8 217.923M262.8 267.911V217.923M262.8 267.911L306.071 292.905L349.349 267.911V217.923L306.071 192.929L262.8 217.923M262.8 -32.0174V-82.0056M262.8 -32.0174L306.071 -7.02339L349.349 -32.0174M262.8 -82.0056L306.071 -107M306.071 -107L349.349 -82.0056M349.349 -32.0174V-82.0056M349.349 -32.0174L392.621 -7.02339L435.892 -32.0174V-82.0056L392.621 -107L349.349 -82.0056M522.442 117.947L565.72 142.941V192.929L522.442 217.923L479.17 192.929V142.941M522.442 117.947L479.17 142.941M522.442 117.947V67.9588M479.17 142.941L435.892 117.947V67.9588L479.17 42.9647M522.442 67.9588L479.17 42.9647M522.442 67.9588L565.72 42.9647V-7.02339L522.442 -32.0174L479.17 -7.02339V42.9647M782.084 217.923V267.911L738.812 292.905L695.541 267.911V217.923L738.812 192.929M782.084 217.923L738.812 192.929M782.084 217.923L825.362 192.929V142.941M738.812 192.929V142.941L782.084 117.947M825.362 142.941L782.084 117.947M825.362 142.941L868.633 117.947V67.9588L825.362 42.9647L782.084 67.9588V117.947M868.633 -82.0056L911.904 -107V-156.988L868.633 -181.982L825.362 -156.988V-107L868.633 -82.0056ZM868.633 -82.0056L911.911 -107M868.633 -82.0056V-32.0174L911.911 -7.02339M955.182 217.923V267.911L911.911 292.905L868.633 267.911V217.923L911.911 192.929M955.182 217.923L911.911 192.929M955.182 217.923L998.454 192.929M911.911 192.929V142.941L955.182 117.947M998.454 192.929V142.941M998.454 192.929L1041.73 217.923L1085 192.929V142.941L1041.73 117.947M998.454 142.941L955.182 117.947M998.454 142.941L1041.73 117.947M955.182 117.947V67.9588M955.182 67.9588L998.454 42.9647M955.182 67.9588L911.911 42.9647V-7.02339M998.454 42.9647V-7.02339M998.454 42.9647L1041.73 67.9588M998.454 -7.02339L955.182 -32.0174M998.454 -7.02339L1041.73 -32.0174L1085 -7.02339V42.9647L1041.73 67.9588M955.182 -32.0174L911.911 -7.02339M955.182 -32.0174V-82.0056M955.182 -82.0056L911.911 -107M955.182 -82.0056L998.454 -107V-156.988L955.182 -181.982L911.911 -156.988V-107M1041.73 117.947V67.9588M608.991 217.923L652.263 192.929V142.941L608.991 117.947L565.713 142.941V192.929L608.991 217.923ZM608.991 67.9588L652.263 42.9647V-7.02339L608.991 -32.0174L565.713 -7.02339V42.9647L608.991 67.9588ZM608.991 -82.0056L652.263 -107V-156.988L608.991 -181.982L565.713 -156.988V-107L608.991 -82.0056Z" stroke="#664DFF" stroke-opacity="0.3" stroke-width="2"/>
<path d="M84.7041 67.958C84.7041 66.6322 85.2306 65.3608 86.1676 64.4233C87.1047 63.4859 88.3756 62.9592 89.7008 62.9592C91.0261 62.9592 92.297 63.4859 93.234 64.4233C94.1711 65.3608 94.6975 66.6322 94.6975 67.958C94.6975 69.2838 94.1711 70.5552 93.234 71.4927C92.297 72.4302 91.0261 72.9568 89.7008 72.9568C88.3756 72.9568 87.1047 72.4302 86.1676 71.4927C85.2306 70.5552 84.7041 69.2838 84.7041 67.958ZM127.982 42.964C127.982 41.6382 128.509 40.3667 129.446 39.4293C130.383 38.4918 131.654 37.9651 132.979 37.9651C134.304 37.9651 135.575 38.4918 136.512 39.4293C137.449 40.3667 137.976 41.6382 137.976 42.964C137.976 44.2897 137.449 45.5612 136.512 46.4986C135.575 47.4361 134.304 47.9628 132.979 47.9628C131.654 47.9628 130.383 47.4361 129.446 46.4986C128.509 45.5612 127.982 44.2897 127.982 42.964ZM127.982 -7.02414C127.982 -8.34991 128.509 -9.6214 129.446 -10.5589C130.383 -11.4963 131.654 -12.0229 132.979 -12.0229C134.304 -12.0229 135.575 -11.4963 136.512 -10.5589C137.449 -9.6214 137.976 -8.34991 137.976 -7.02414C137.976 -5.69839 137.449 -4.42694 136.512 -3.48947C135.575 -2.552 134.304 -2.02533 132.979 -2.02533C131.654 -2.02533 130.383 -2.552 129.446 -3.48947C128.509 -4.42694 127.982 -5.69839 127.982 -7.02414ZM84.7041 -32.0182C84.7041 -33.344 85.2306 -34.6154 86.1676 -35.5529C87.1047 -36.4904 88.3756 -37.017 89.7008 -37.017C91.0261 -37.017 92.297 -36.4904 93.234 -35.5529C94.1711 -34.6154 94.6975 -33.344 94.6975 -32.0182C94.6975 -30.6924 94.1711 -29.421 93.234 -28.4835C92.297 -27.5461 91.0261 -27.0194 89.7008 -27.0194C88.3756 -27.0194 87.1047 -27.5461 86.1676 -28.4835C85.2306 -29.421 84.7041 -30.6924 84.7041 -32.0182ZM41.4327 -7.02414C41.4327 -8.34991 41.9592 -9.6214 42.8962 -10.5589C43.8333 -11.4963 45.1042 -12.0229 46.4294 -12.0229C47.7546 -12.0229 49.0256 -11.4963 49.9626 -10.5589C50.8997 -9.6214 51.4261 -8.34991 51.4261 -7.02414C51.4261 -6.36771 51.2969 -5.71768 51.0458 -5.11121C50.7947 -4.5047 50.4266 -3.95364 49.9626 -3.48947C49.4986 -3.0253 48.9478 -2.65707 48.3416 -2.40585C47.7354 -2.15466 47.0856 -2.02533 46.4294 -2.02533C45.7732 -2.02533 45.1235 -2.15466 44.5173 -2.40585C43.911 -2.65707 43.3602 -3.0253 42.8962 -3.48947C42.4322 -3.95364 42.0642 -4.5047 41.8131 -5.11121C41.562 -5.71768 41.4327 -6.36771 41.4327 -7.02414ZM41.4327 42.964C41.4327 41.6382 41.9592 40.3667 42.8962 39.4293C43.8333 38.4918 45.1042 37.9651 46.4294 37.9651C47.7546 37.9651 49.0256 38.4918 49.9626 39.4293C50.8997 40.3667 51.4261 41.6382 51.4261 42.964C51.4261 43.6204 51.2969 44.2704 51.0458 44.8769C50.7947 45.4834 50.4266 46.0345 49.9626 46.4986C49.4986 46.9628 48.9478 47.331 48.3416 47.5822C47.7354 47.8335 47.0856 47.9628 46.4294 47.9628C45.7732 47.9628 45.1235 47.8335 44.5173 47.5822C43.911 47.331 43.3602 46.9628 42.8962 46.4986C42.4322 46.0345 42.0642 45.4834 41.8131 44.8769C41.562 44.2704 41.4327 43.6204 41.4327 42.964ZM84.7041 -82.0063C84.7041 -83.3321 85.2306 -84.6035 86.1676 -85.541C87.1047 -86.4785 88.3756 -87.0051 89.7008 -87.0051C91.0261 -87.0051 92.297 -86.4785 93.234 -85.541C94.1711 -84.6035 94.6975 -83.3321 94.6975 -82.0063C94.6975 -80.6805 94.1711 -79.4091 93.234 -78.4716C92.297 -77.5342 91.0261 -77.0075 89.7008 -77.0075C88.3756 -77.0075 87.1047 -77.5342 86.1676 -78.4716C85.2306 -79.4091 84.7041 -80.6805 84.7041 -82.0063ZM41.4327 -107C41.4327 -108.326 41.9592 -109.598 42.8962 -110.535C43.8333 -111.473 45.1042 -111.999 46.4294 -111.999C47.7546 -111.999 49.0256 -111.473 49.9626 -110.535C50.8997 -109.598 51.4261 -108.326 51.4261 -107C51.4261 -106.344 51.2969 -105.694 51.0458 -105.087C50.7947 -104.481 50.4266 -103.93 49.9626 -103.466C49.4986 -103.001 48.9478 -102.633 48.3416 -102.382C47.7354 -102.131 47.0856 -102.002 46.4294 -102.002C45.7732 -102.002 45.1235 -102.131 44.5173 -102.382C43.911 -102.633 43.3602 -103.001 42.8962 -103.466C42.4322 -103.93 42.0642 -104.481 41.8131 -105.087C41.562 -105.694 41.4327 -106.344 41.4327 -107ZM-1.83868 -82.0063C-1.83868 -83.3321 -1.31225 -84.6035 -0.375185 -85.541C0.561878 -86.4785 1.83281 -87.0051 3.15801 -87.0051C4.48322 -87.0051 5.75415 -86.4785 6.69121 -85.541C7.62828 -84.6035 8.15471 -83.3321 8.15471 -82.0063C8.15471 -80.6805 7.62828 -79.4091 6.69121 -78.4716C5.75415 -77.5342 4.48322 -77.0075 3.15801 -77.0075C1.83281 -77.0075 0.561878 -77.5342 -0.375185 -78.4716C-1.31225 -79.4091 -1.83868 -80.6805 -1.83868 -82.0063ZM-1.83868 -32.0182C-1.83868 -33.344 -1.31225 -34.6154 -0.375185 -35.5529C0.561878 -36.4904 1.83281 -37.017 3.15801 -37.017C4.48322 -37.017 5.75415 -36.4904 6.69121 -35.5529C7.62828 -34.6154 8.15471 -33.344 8.15471 -32.0182C8.15471 -30.6924 7.62828 -29.421 6.69121 -28.4835C5.75415 -27.5461 4.48322 -27.0194 3.15801 -27.0194C1.83281 -27.0194 0.561878 -27.5461 -0.375185 -28.4835C-1.31225 -29.421 -1.83868 -30.6924 -1.83868 -32.0182ZM127.982 -107C127.982 -108.326 128.509 -109.598 129.446 -110.535C130.383 -111.473 131.654 -111.999 132.979 -111.999C134.304 -111.999 135.575 -111.473 136.512 -110.535C137.449 -109.598 137.976 -108.326 137.976 -107C137.976 -105.675 137.449 -104.403 136.512 -103.466C135.575 -102.528 134.304 -102.002 132.979 -102.002C131.654 -102.002 130.383 -102.528 129.446 -103.466C128.509 -104.403 127.982 -105.675 127.982 -107ZM127.982 -156.988C127.982 -158.314 128.509 -159.586 129.446 -160.523C130.383 -161.461 131.654 -161.987 132.979 -161.987C134.304 -161.987 135.575 -161.461 136.512 -160.523C137.449 -159.586 137.976 -158.314 137.976 -156.988C137.976 -155.663 137.449 -154.391 136.512 -153.454C135.575 -152.516 134.304 -151.99 132.979 -151.99C131.654 -151.99 130.383 -152.516 129.446 -153.454C128.509 -154.391 127.982 -155.663 127.982 -156.988ZM84.7041 -181.983C84.7041 -183.308 85.2306 -184.58 86.1676 -185.517C87.1047 -186.455 88.3756 -186.981 89.7008 -186.981C91.0261 -186.981 92.297 -186.455 93.234 -185.517C94.1711 -184.58 94.6975 -183.308 94.6975 -181.983C94.6975 -180.657 94.1711 -179.385 93.234 -178.448C92.297 -177.51 91.0261 -176.984 89.7008 -176.984C88.3756 -176.984 87.1047 -177.51 86.1676 -178.448C85.2306 -179.385 84.7041 -180.657 84.7041 -181.983ZM41.4327 -156.988C41.4327 -158.314 41.9592 -159.586 42.8962 -160.523C43.8333 -161.461 45.1042 -161.987 46.4294 -161.987C47.7546 -161.987 49.0256 -161.461 49.9626 -160.523C50.8997 -159.586 51.4261 -158.314 51.4261 -156.988C51.4261 -156.332 51.2969 -155.682 51.0458 -155.076C50.7947 -154.469 50.4266 -153.918 49.9626 -153.454C49.4986 -152.99 48.9478 -152.621 48.3416 -152.37C47.7354 -152.119 47.0856 -151.99 46.4294 -151.99C45.7732 -151.99 45.1235 -152.119 44.5173 -152.37C43.911 -152.621 43.3602 -152.99 42.8962 -153.454C42.4322 -153.918 42.0642 -154.469 41.8131 -155.076C41.562 -155.682 41.4327 -156.332 41.4327 -156.988ZM171.254 -32.0182C171.254 -33.344 171.78 -34.6154 172.717 -35.5529C173.654 -36.4904 174.925 -37.017 176.25 -37.017C177.576 -37.017 178.846 -36.4904 179.784 -35.5529C180.721 -34.6154 181.247 -33.344 181.247 -32.0182C181.247 -30.6924 180.721 -29.421 179.784 -28.4835C178.846 -27.5461 177.576 -27.0194 176.25 -27.0194C174.925 -27.0194 173.654 -27.5461 172.717 -28.4835C171.78 -29.421 171.254 -30.6924 171.254 -32.0182ZM171.254 -82.0063C171.254 -83.3321 171.78 -84.6035 172.717 -85.541C173.654 -86.4785 174.925 -87.0051 176.25 -87.0051C177.576 -87.0051 178.846 -86.4785 179.784 -85.541C180.721 -84.6035 181.247 -83.3321 181.247 -82.0063C181.247 -80.6805 180.721 -79.4091 179.784 -78.4716C178.846 -77.5342 177.576 -77.0075 176.25 -77.0075C174.925 -77.0075 173.654 -77.5342 172.717 -78.4716C171.78 -79.4091 171.254 -80.6805 171.254 -82.0063ZM214.525 -107C214.525 -108.326 215.051 -109.598 215.989 -110.535C216.926 -111.473 218.197 -111.999 219.522 -111.999C220.847 -111.999 222.118 -111.473 223.055 -110.535C223.992 -109.598 224.518 -108.326 224.518 -107C224.518 -105.675 223.992 -104.403 223.055 -103.466C222.118 -102.528 220.847 -102.002 219.522 -102.002C218.197 -102.002 216.926 -102.528 215.989 -103.466C215.051 -104.403 214.525 -105.675 214.525 -107ZM214.525 -156.988C214.525 -158.314 215.051 -159.586 215.989 -160.523C216.926 -161.461 218.197 -161.987 219.522 -161.987C220.847 -161.987 222.118 -161.461 223.055 -160.523C223.992 -159.586 224.518 -158.314 224.518 -156.988C224.518 -155.663 223.992 -154.391 223.055 -153.454C222.118 -152.516 220.847 -151.99 219.522 -151.99C218.197 -151.99 216.926 -152.516 215.989 -153.454C215.051 -154.391 214.525 -155.663 214.525 -156.988ZM171.254 -181.983C171.254 -183.308 171.78 -184.58 172.717 -185.517C173.654 -186.455 174.925 -186.981 176.25 -186.981C177.576 -186.981 178.846 -186.455 179.784 -185.517C180.721 -184.58 181.247 -183.308 181.247 -181.983C181.247 -180.657 180.721 -179.385 179.784 -178.448C178.846 -177.51 177.576 -176.984 176.25 -176.984C174.925 -176.984 173.654 -177.51 172.717 -178.448C171.78 -179.385 171.254 -180.657 171.254 -181.983ZM214.525 292.905C214.525 291.579 215.051 290.307 215.989 289.37C216.926 288.432 218.197 287.906 219.522 287.906C220.847 287.906 222.118 288.432 223.055 289.37C223.992 290.307 224.518 291.579 224.518 292.905C224.518 294.23 223.992 295.502 223.055 296.439C222.118 297.377 220.847 297.903 219.522 297.903C218.197 297.903 216.926 297.377 215.989 296.439C215.051 295.502 214.525 294.23 214.525 292.905ZM257.803 267.91C257.803 266.585 258.33 265.313 259.267 264.376C260.204 263.438 261.475 262.912 262.8 262.912C264.125 262.912 265.396 263.438 266.333 264.376C267.27 265.313 267.797 266.585 267.797 267.91C267.797 269.236 267.27 270.508 266.333 271.445C265.396 272.383 264.125 272.909 262.8 272.909C261.475 272.909 260.204 272.383 259.267 271.445C258.33 270.508 257.803 269.236 257.803 267.91ZM257.803 217.922C257.803 216.597 258.33 215.325 259.267 214.388C260.204 213.45 261.475 212.924 262.8 212.924C264.125 212.924 265.396 213.45 266.333 214.388C267.27 215.325 267.797 216.597 267.797 217.922C267.797 219.248 267.27 220.52 266.333 221.457C265.396 222.394 264.125 222.921 262.8 222.921C261.475 222.921 260.204 222.394 259.267 221.457C258.33 220.52 257.803 219.248 257.803 217.922ZM214.525 192.928C214.525 191.603 215.051 190.331 215.989 189.394C216.926 188.456 218.197 187.929 219.522 187.929C220.847 187.929 222.118 188.456 223.055 189.394C223.992 190.331 224.518 191.603 224.518 192.928C224.518 194.254 223.992 195.526 223.055 196.463C222.118 197.4 220.847 197.927 219.522 197.927C218.197 197.927 216.926 197.4 215.989 196.463C215.051 195.526 214.525 194.254 214.525 192.928ZM171.254 217.922C171.254 216.597 171.78 215.325 172.717 214.388C173.654 213.45 174.925 212.924 176.25 212.924C177.576 212.924 178.846 213.45 179.784 214.388C180.721 215.325 181.247 216.597 181.247 217.922C181.247 219.248 180.721 220.52 179.784 221.457C178.846 222.394 177.576 222.921 176.25 222.921C174.925 222.921 173.654 222.394 172.717 221.457C171.78 220.52 171.254 219.248 171.254 217.922ZM171.254 267.91C171.254 266.585 171.78 265.313 172.717 264.376C173.654 263.438 174.925 262.912 176.25 262.912C177.576 262.912 178.846 263.438 179.784 264.376C180.721 265.313 181.247 266.585 181.247 267.91C181.247 269.236 180.721 270.508 179.784 271.445C178.846 272.383 177.576 272.909 176.25 272.909C174.925 272.909 173.654 272.383 172.717 271.445C171.78 270.508 171.254 269.236 171.254 267.91ZM214.525 -7.02414C214.525 -8.34991 215.051 -9.6214 215.989 -10.5589C216.926 -11.4963 218.197 -12.0229 219.522 -12.0229C220.847 -12.0229 222.118 -11.4963 223.055 -10.5589C223.992 -9.6214 224.518 -8.34991 224.518 -7.02414C224.518 -5.69839 223.992 -4.42694 223.055 -3.48947C222.118 -2.552 220.847 -2.02533 219.522 -2.02533C218.197 -2.02533 216.926 -2.552 215.989 -3.48947C215.051 -4.42694 214.525 -5.69839 214.525 -7.02414ZM257.803 -32.0182C257.803 -33.344 258.33 -34.6154 259.267 -35.5529C260.204 -36.4904 261.475 -37.017 262.8 -37.017C264.125 -37.017 265.396 -36.4904 266.333 -35.5529C267.27 -34.6154 267.797 -33.344 267.797 -32.0182C267.797 -30.6924 267.27 -29.421 266.333 -28.4835C265.396 -27.5461 264.125 -27.0194 262.8 -27.0194C261.475 -27.0194 260.204 -27.5461 259.267 -28.4835C258.33 -29.421 257.803 -30.6924 257.803 -32.0182ZM257.803 -82.0063C257.803 -83.3321 258.33 -84.6035 259.267 -85.541C260.204 -86.4785 261.475 -87.0051 262.8 -87.0051C264.125 -87.0051 265.396 -86.4785 266.333 -85.541C267.27 -84.6035 267.797 -83.3321 267.797 -82.0063C267.797 -80.6805 267.27 -79.4091 266.333 -78.4716C265.396 -77.5342 264.125 -77.0075 262.8 -77.0075C261.475 -77.0075 260.204 -77.5342 259.267 -78.4716C258.33 -79.4091 257.803 -80.6805 257.803 -82.0063ZM301.075 -107C301.075 -108.326 301.601 -109.598 302.538 -110.535C303.475 -111.473 304.746 -111.999 306.071 -111.999C307.396 -111.999 308.667 -111.473 309.604 -110.535C310.541 -109.598 311.068 -108.326 311.068 -107C311.068 -105.675 310.541 -104.403 309.604 -103.466C308.667 -102.528 307.396 -102.002 306.071 -102.002C304.746 -102.002 303.475 -102.528 302.538 -103.466C301.601 -104.403 301.075 -105.675 301.075 -107ZM301.075 -156.988C301.075 -158.314 301.601 -159.586 302.538 -160.523C303.475 -161.461 304.746 -161.987 306.071 -161.987C307.396 -161.987 308.667 -161.461 309.604 -160.523C310.541 -159.586 311.068 -158.314 311.068 -156.988C311.068 -155.663 310.541 -154.391 309.604 -153.454C308.667 -152.516 307.396 -151.99 306.071 -151.99C304.746 -151.99 303.475 -152.516 302.538 -153.454C301.601 -154.391 301.075 -155.663 301.075 -156.988ZM257.803 -181.983C257.803 -183.308 258.33 -184.58 259.267 -185.517C260.204 -186.455 261.475 -186.981 262.8 -186.981C264.125 -186.981 265.396 -186.455 266.333 -185.517C267.27 -184.58 267.797 -183.308 267.797 -181.983C267.797 -180.657 267.27 -179.385 266.333 -178.448C265.396 -177.51 264.125 -176.984 262.8 -176.984C261.475 -176.984 260.204 -177.51 259.267 -178.448C258.33 -179.385 257.803 -180.657 257.803 -181.983ZM301.075 292.905C301.075 291.579 301.601 290.307 302.538 289.37C303.475 288.432 304.746 287.906 306.071 287.906C307.396 287.906 308.667 288.432 309.604 289.37C310.541 290.307 311.068 291.579 311.068 292.905C311.068 294.23 310.541 295.502 309.604 296.439C308.667 297.377 307.396 297.903 306.071 297.903C304.746 297.903 303.475 297.377 302.538 296.439C301.601 295.502 301.075 294.23 301.075 292.905ZM344.353 267.91C344.353 266.585 344.879 265.313 345.816 264.376C346.753 263.438 348.024 262.912 349.349 262.912C350.674 262.912 351.945 263.438 352.882 264.376C353.82 265.313 354.346 266.585 354.346 267.91C354.346 269.236 353.82 270.508 352.882 271.445C351.945 272.383 350.674 272.909 349.349 272.909C348.024 272.909 346.753 272.383 345.816 271.445C344.879 270.508 344.353 269.236 344.353 267.91ZM344.353 217.922C344.353 216.597 344.879 215.325 345.816 214.388C346.753 213.45 348.024 212.924 349.349 212.924C350.674 212.924 351.945 213.45 352.882 214.388C353.82 215.325 354.346 216.597 354.346 217.922C354.346 219.248 353.82 220.52 352.882 221.457C351.945 222.394 350.674 222.921 349.349 222.921C348.024 222.921 346.753 222.394 345.816 221.457C344.879 220.52 344.353 219.248 344.353 217.922ZM301.075 192.928C301.075 191.603 301.601 190.331 302.538 189.394C303.475 188.456 304.746 187.929 306.071 187.929C307.396 187.929 308.667 188.456 309.604 189.394C310.541 190.331 311.068 191.603 311.068 192.928C311.068 194.254 310.541 195.526 309.604 196.463C308.667 197.4 307.396 197.927 306.071 197.927C304.746 197.927 303.475 197.4 302.538 196.463C301.601 195.526 301.075 194.254 301.075 192.928ZM301.075 -7.02414C301.075 -8.34991 301.601 -9.6214 302.538 -10.5589C303.475 -11.4963 304.746 -12.0229 306.071 -12.0229C307.396 -12.0229 308.667 -11.4963 309.604 -10.5589C310.541 -9.6214 311.068 -8.34991 311.068 -7.02414C311.068 -5.69839 310.541 -4.42694 309.604 -3.48947C308.667 -2.552 307.396 -2.02533 306.071 -2.02533C304.746 -2.02533 303.475 -2.552 302.538 -3.48947C301.601 -4.42694 301.075 -5.69839 301.075 -7.02414ZM344.353 -32.0182C344.353 -33.344 344.879 -34.6154 345.816 -35.5529C346.753 -36.4904 348.024 -37.017 349.349 -37.017C350.674 -37.017 351.945 -36.4904 352.882 -35.5529C353.82 -34.6154 354.346 -33.344 354.346 -32.0182C354.346 -30.6924 353.82 -29.421 352.882 -28.4835C351.945 -27.5461 350.674 -27.0194 349.349 -27.0194C348.024 -27.0194 346.753 -27.5461 345.816 -28.4835C344.879 -29.421 344.353 -30.6924 344.353 -32.0182ZM344.353 -82.0063C344.353 -83.3321 344.879 -84.6035 345.816 -85.541C346.753 -86.4785 348.024 -87.0051 349.349 -87.0051C350.674 -87.0051 351.945 -86.4785 352.882 -85.541C353.82 -84.6035 354.346 -83.3321 354.346 -82.0063C354.346 -80.6805 353.82 -79.4091 352.882 -78.4716C351.945 -77.5342 350.674 -77.0075 349.349 -77.0075C348.024 -77.0075 346.753 -77.5342 345.816 -78.4716C344.879 -79.4091 344.353 -80.6805 344.353 -82.0063ZM387.624 -7.02414C387.624 -8.34991 388.15 -9.6214 389.087 -10.5589C390.025 -11.4963 391.296 -12.0229 392.621 -12.0229C393.946 -12.0229 395.217 -11.4963 396.154 -10.5589C397.091 -9.6214 397.617 -8.34991 397.617 -7.02414C397.617 -5.69839 397.091 -4.42694 396.154 -3.48947C395.217 -2.552 393.946 -2.02533 392.621 -2.02533C391.296 -2.02533 390.025 -2.552 389.087 -3.48947C388.15 -4.42694 387.624 -5.69839 387.624 -7.02414ZM430.895 -32.0182C430.895 -33.344 431.422 -34.6154 432.359 -35.5529C433.296 -36.4904 434.567 -37.017 435.892 -37.017C437.217 -37.017 438.488 -36.4904 439.425 -35.5529C440.362 -34.6154 440.889 -33.344 440.889 -32.0182C440.889 -30.6924 440.362 -29.421 439.425 -28.4835C438.488 -27.5461 437.217 -27.0194 435.892 -27.0194C434.567 -27.0194 433.296 -27.5461 432.359 -28.4835C431.422 -29.421 430.895 -30.6924 430.895 -32.0182ZM430.895 -82.0063C430.895 -83.3321 431.422 -84.6035 432.359 -85.541C433.296 -86.4785 434.567 -87.0051 435.892 -87.0051C437.217 -87.0051 438.488 -86.4785 439.425 -85.541C440.362 -84.6035 440.889 -83.3321 440.889 -82.0063C440.889 -80.6805 440.362 -79.4091 439.425 -78.4716C438.488 -77.5342 437.217 -77.0075 435.892 -77.0075C434.567 -77.0075 433.296 -77.5342 432.359 -78.4716C431.422 -79.4091 430.895 -80.6805 430.895 -82.0063ZM387.624 -107C387.624 -108.326 388.15 -109.598 389.087 -110.535C390.025 -111.473 391.296 -111.999 392.621 -111.999C393.946 -111.999 395.217 -111.473 396.154 -110.535C397.091 -109.598 397.617 -108.326 397.617 -107C397.617 -105.675 397.091 -104.403 396.154 -103.466C395.217 -102.528 393.946 -102.002 392.621 -102.002C391.296 -102.002 390.025 -102.528 389.087 -103.466C388.15 -104.403 387.624 -105.675 387.624 -107ZM517.445 217.922C517.445 216.597 517.971 215.325 518.908 214.388C519.845 213.45 521.116 212.924 522.442 212.924C523.767 212.924 525.038 213.45 525.975 214.388C526.912 215.325 527.438 216.597 527.438 217.922C527.438 219.248 526.912 220.52 525.975 221.457C525.038 222.394 523.767 222.921 522.442 222.921C521.116 222.921 519.845 222.394 518.908 221.457C517.971 220.52 517.445 219.248 517.445 217.922ZM560.723 192.928C560.723 191.603 561.249 190.331 562.186 189.394C563.124 188.456 564.394 187.929 565.72 187.929C567.045 187.929 568.316 188.456 569.253 189.394C570.19 190.331 570.716 191.603 570.716 192.928C570.716 194.254 570.19 195.526 569.253 196.463C568.316 197.4 567.045 197.927 565.72 197.927C564.394 197.927 563.124 197.4 562.186 196.463C561.249 195.526 560.723 194.254 560.723 192.928ZM560.723 142.94C560.723 141.614 561.249 140.343 562.186 139.405C563.124 138.468 564.394 137.941 565.72 137.941C567.045 137.941 568.316 138.468 569.253 139.405C570.19 140.343 570.716 141.614 570.716 142.94C570.716 144.266 570.19 145.537 569.253 146.475C568.316 147.412 567.045 147.939 565.72 147.939C564.394 147.939 563.124 147.412 562.186 146.475C561.249 145.537 560.723 144.266 560.723 142.94ZM517.445 117.946C517.445 116.62 517.971 115.349 518.908 114.411C519.845 113.474 521.116 112.947 522.442 112.947C523.767 112.947 525.038 113.474 525.975 114.411C526.912 115.349 527.438 116.62 527.438 117.946C527.438 119.272 526.912 120.543 525.975 121.481C525.038 122.418 523.767 122.945 522.442 122.945C521.116 122.945 519.845 122.418 518.908 121.481C517.971 120.543 517.445 119.272 517.445 117.946ZM474.173 142.94C474.173 141.614 474.7 140.343 475.637 139.405C476.574 138.468 477.845 137.941 479.17 137.941C480.495 137.941 481.766 138.468 482.703 139.405C483.64 140.343 484.167 141.614 484.167 142.94C484.167 144.266 483.64 145.537 482.703 146.475C481.766 147.412 480.495 147.939 479.17 147.939C477.845 147.939 476.574 147.412 475.637 146.475C474.7 145.537 474.173 144.266 474.173 142.94ZM474.173 192.928C474.173 191.603 474.7 190.331 475.637 189.394C476.574 188.456 477.845 187.929 479.17 187.929C480.495 187.929 481.766 188.456 482.703 189.394C483.64 190.331 484.167 191.603 484.167 192.928C484.167 194.254 483.64 195.526 482.703 196.463C481.766 197.4 480.495 197.927 479.17 197.927C477.845 197.927 476.574 197.4 475.637 196.463C474.7 195.526 474.173 194.254 474.173 192.928ZM517.445 67.958C517.445 66.6322 517.971 65.3608 518.908 64.4233C519.845 63.4859 521.116 62.9592 522.442 62.9592C523.767 62.9592 525.038 63.4859 525.975 64.4233C526.912 65.3608 527.438 66.6322 527.438 67.958C527.438 69.2838 526.912 70.5552 525.975 71.4927C525.038 72.4302 523.767 72.9568 522.442 72.9568C521.116 72.9568 519.845 72.4302 518.908 71.4927C517.971 70.5552 517.445 69.2838 517.445 67.958ZM474.173 42.964C474.173 41.6382 474.7 40.3667 475.637 39.4293C476.574 38.4918 477.845 37.9651 479.17 37.9651C480.495 37.9651 481.766 38.4918 482.703 39.4293C483.64 40.3667 484.167 41.6382 484.167 42.964C484.167 44.2897 483.64 45.5612 482.703 46.4986C481.766 47.4361 480.495 47.9628 479.17 47.9628C477.845 47.9628 476.574 47.4361 475.637 46.4986C474.7 45.5612 474.173 44.2897 474.173 42.964ZM430.895 67.958C430.895 66.6322 431.422 65.3608 432.359 64.4233C433.296 63.4859 434.567 62.9592 435.892 62.9592C437.217 62.9592 438.488 63.4859 439.425 64.4233C440.362 65.3608 440.889 66.6322 440.889 67.958C440.889 69.2838 440.362 70.5552 439.425 71.4927C438.488 72.4302 437.217 72.9568 435.892 72.9568C434.567 72.9568 433.296 72.4302 432.359 71.4927C431.422 70.5552 430.895 69.2838 430.895 67.958ZM430.895 117.946C430.895 116.62 431.422 115.349 432.359 114.411C433.296 113.474 434.567 112.947 435.892 112.947C437.217 112.947 438.488 113.474 439.425 114.411C440.362 115.349 440.889 116.62 440.889 117.946C440.889 119.272 440.362 120.543 439.425 121.481C438.488 122.418 437.217 122.945 435.892 122.945C434.567 122.945 433.296 122.418 432.359 121.481C431.422 120.543 430.895 119.272 430.895 117.946ZM560.723 42.964C560.723 41.6382 561.249 40.3667 562.186 39.4293C563.124 38.4918 564.394 37.9651 565.72 37.9651C567.045 37.9651 568.316 38.4918 569.253 39.4293C570.19 40.3667 570.716 41.6382 570.716 42.964C570.716 44.2897 570.19 45.5612 569.253 46.4986C568.316 47.4361 567.045 47.9628 565.72 47.9628C564.394 47.9628 563.124 47.4361 562.186 46.4986C561.249 45.5612 560.723 44.2897 560.723 42.964ZM560.723 -7.02414C560.723 -8.34991 561.249 -9.6214 562.186 -10.5589C563.124 -11.4963 564.394 -12.0229 565.72 -12.0229C567.045 -12.0229 568.316 -11.4963 569.253 -10.5589C570.19 -9.6214 570.716 -8.34991 570.716 -7.02414C570.716 -5.69839 570.19 -4.42694 569.253 -3.48947C568.316 -2.552 567.045 -2.02533 565.72 -2.02533C564.394 -2.02533 563.124 -2.552 562.186 -3.48947C561.249 -4.42694 560.723 -5.69839 560.723 -7.02414ZM517.445 -32.0182C517.445 -33.344 517.971 -34.6154 518.908 -35.5529C519.845 -36.4904 521.116 -37.017 522.442 -37.017C523.767 -37.017 525.038 -36.4904 525.975 -35.5529C526.912 -34.6154 527.438 -33.344 527.438 -32.0182C527.438 -30.6924 526.912 -29.421 525.975 -28.4835C525.038 -27.5461 523.767 -27.0194 522.442 -27.0194C521.116 -27.0194 519.845 -27.5461 518.908 -28.4835C517.971 -29.421 517.445 -30.6924 517.445 -32.0182ZM474.173 -7.02414C474.173 -8.34991 474.7 -9.6214 475.637 -10.5589C476.574 -11.4963 477.845 -12.0229 479.17 -12.0229C480.495 -12.0229 481.766 -11.4963 482.703 -10.5589C483.64 -9.6214 484.167 -8.34991 484.167 -7.02414C484.167 -5.69839 483.64 -4.42694 482.703 -3.48947C481.766 -2.552 480.495 -2.02533 479.17 -2.02533C477.845 -2.02533 476.574 -2.552 475.637 -3.48947C474.7 -4.42694 474.173 -5.69839 474.173 -7.02414ZM603.994 217.922C603.994 216.597 604.521 215.325 605.458 214.388C606.395 213.45 607.666 212.924 608.991 212.924C610.316 212.924 611.587 213.45 612.524 214.388C613.461 215.325 613.988 216.597 613.988 217.922C613.988 219.248 613.461 220.52 612.524 221.457C611.587 222.394 610.316 222.921 608.991 222.921C607.666 222.921 606.395 222.394 605.458 221.457C604.521 220.52 603.994 219.248 603.994 217.922ZM647.266 192.928C647.266 191.603 647.792 190.331 648.729 189.394C649.666 188.456 650.937 187.929 652.263 187.929C653.588 187.929 654.859 188.456 655.796 189.394C656.733 190.331 657.259 191.603 657.259 192.928C657.259 194.254 656.733 195.526 655.796 196.463C654.859 197.4 653.588 197.927 652.263 197.927C650.937 197.927 649.666 197.4 648.729 196.463C647.792 195.526 647.266 194.254 647.266 192.928ZM647.266 142.94C647.266 141.614 647.792 140.343 648.729 139.405C649.666 138.468 650.937 137.941 652.263 137.941C653.588 137.941 654.859 138.468 655.796 139.405C656.733 140.343 657.259 141.614 657.259 142.94C657.259 144.266 656.733 145.537 655.796 146.475C654.859 147.412 653.588 147.939 652.263 147.939C650.937 147.939 649.666 147.412 648.729 146.475C647.792 145.537 647.266 144.266 647.266 142.94ZM603.994 117.946C603.994 116.62 604.521 115.349 605.458 114.411C606.395 113.474 607.666 112.947 608.991 112.947C610.316 112.947 611.587 113.474 612.524 114.411C613.461 115.349 613.988 116.62 613.988 117.946C613.988 119.272 613.461 120.543 612.524 121.481C611.587 122.418 610.316 122.945 608.991 122.945C607.666 122.945 606.395 122.418 605.458 121.481C604.521 120.543 603.994 119.272 603.994 117.946ZM560.716 142.94C560.716 141.614 561.243 140.343 562.18 139.405C563.117 138.468 564.388 137.941 565.713 137.941C567.038 137.941 568.309 138.468 569.246 139.405C570.183 140.343 570.71 141.614 570.71 142.94C570.71 144.266 570.183 145.537 569.246 146.475C568.309 147.412 567.038 147.939 565.713 147.939C564.388 147.939 563.117 147.412 562.18 146.475C561.243 145.537 560.716 144.266 560.716 142.94ZM560.716 192.928C560.716 191.603 561.243 190.331 562.18 189.394C563.117 188.456 564.388 187.929 565.713 187.929C567.038 187.929 568.309 188.456 569.246 189.394C570.183 190.331 570.71 191.603 570.71 192.928C570.71 194.254 570.183 195.526 569.246 196.463C568.309 197.4 567.038 197.927 565.713 197.927C564.388 197.927 563.117 197.4 562.18 196.463C561.243 195.526 560.716 194.254 560.716 192.928ZM603.994 67.958C603.994 66.6322 604.521 65.3608 605.458 64.4233C606.395 63.4859 607.666 62.9592 608.991 62.9592C610.316 62.9592 611.587 63.4859 612.524 64.4233C613.461 65.3608 613.988 66.6322 613.988 67.958C613.988 69.2838 613.461 70.5552 612.524 71.4927C611.587 72.4302 610.316 72.9568 608.991 72.9568C607.666 72.9568 606.395 72.4302 605.458 71.4927C604.521 70.5552 603.994 69.2838 603.994 67.958ZM647.266 42.964C647.266 41.6382 647.792 40.3667 648.729 39.4293C649.666 38.4918 650.937 37.9651 652.263 37.9651C653.588 37.9651 654.859 38.4918 655.796 39.4293C656.733 40.3667 657.259 41.6382 657.259 42.964C657.259 44.2897 656.733 45.5612 655.796 46.4986C654.859 47.4361 653.588 47.9628 652.263 47.9628C650.937 47.9628 649.666 47.4361 648.729 46.4986C647.792 45.5612 647.266 44.2897 647.266 42.964ZM647.266 -7.02414C647.266 -8.34991 647.792 -9.6214 648.729 -10.5589C649.666 -11.4963 650.937 -12.0229 652.263 -12.0229C653.588 -12.0229 654.859 -11.4963 655.796 -10.5589C656.733 -9.6214 657.259 -8.34991 657.259 -7.02414C657.259 -5.69839 656.733 -4.42694 655.796 -3.48947C654.859 -2.552 653.588 -2.02533 652.263 -2.02533C650.937 -2.02533 649.666 -2.552 648.729 -3.48947C647.792 -4.42694 647.266 -5.69839 647.266 -7.02414ZM603.994 -32.0182C603.994 -33.344 604.521 -34.6154 605.458 -35.5529C606.395 -36.4904 607.666 -37.017 608.991 -37.017C610.316 -37.017 611.587 -36.4904 612.524 -35.5529C613.461 -34.6154 613.988 -33.344 613.988 -32.0182C613.988 -30.6924 613.461 -29.421 612.524 -28.4835C611.587 -27.5461 610.316 -27.0194 608.991 -27.0194C607.666 -27.0194 606.395 -27.5461 605.458 -28.4835C604.521 -29.421 603.994 -30.6924 603.994 -32.0182ZM560.716 -7.02414C560.716 -8.34991 561.243 -9.6214 562.18 -10.5589C563.117 -11.4963 564.388 -12.0229 565.713 -12.0229C567.038 -12.0229 568.309 -11.4963 569.246 -10.5589C570.183 -9.6214 570.71 -8.34991 570.71 -7.02414C570.71 -5.69839 570.183 -4.42694 569.246 -3.48947C568.309 -2.552 567.038 -2.02533 565.713 -2.02533C564.388 -2.02533 563.117 -2.552 562.18 -3.48947C561.243 -4.42694 560.716 -5.69839 560.716 -7.02414ZM560.716 42.964C560.716 41.6382 561.243 40.3667 562.18 39.4293C563.117 38.4918 564.388 37.9651 565.713 37.9651C567.038 37.9651 568.309 38.4918 569.246 39.4293C570.183 40.3667 570.71 41.6382 570.71 42.964C570.71 44.2897 570.183 45.5612 569.246 46.4986C568.309 47.4361 567.038 47.9628 565.713 47.9628C564.388 47.9628 563.117 47.4361 562.18 46.4986C561.243 45.5612 560.716 44.2897 560.716 42.964ZM603.994 -82.0063C603.994 -83.3321 604.521 -84.6035 605.458 -85.541C606.395 -86.4785 607.666 -87.0051 608.991 -87.0051C610.316 -87.0051 611.587 -86.4785 612.524 -85.541C613.461 -84.6035 613.988 -83.3321 613.988 -82.0063C613.988 -80.6805 613.461 -79.4091 612.524 -78.4716C611.587 -77.5342 610.316 -77.0075 608.991 -77.0075C607.666 -77.0075 606.395 -77.5342 605.458 -78.4716C604.521 -79.4091 603.994 -80.6805 603.994 -82.0063ZM647.266 -107C647.266 -108.326 647.792 -109.598 648.729 -110.535C649.666 -111.473 650.937 -111.999 652.263 -111.999C653.588 -111.999 654.859 -111.473 655.796 -110.535C656.733 -109.598 657.259 -108.326 657.259 -107C657.259 -105.675 656.733 -104.403 655.796 -103.466C654.859 -102.528 653.588 -102.002 652.263 -102.002C650.937 -102.002 649.666 -102.528 648.729 -103.466C647.792 -104.403 647.266 -105.675 647.266 -107ZM647.266 -156.988C647.266 -158.314 647.792 -159.586 648.729 -160.523C649.666 -161.461 650.937 -161.987 652.263 -161.987C653.588 -161.987 654.859 -161.461 655.796 -160.523C656.733 -159.586 657.259 -158.314 657.259 -156.988C657.259 -155.663 656.733 -154.391 655.796 -153.454C654.859 -152.516 653.588 -151.99 652.263 -151.99C650.937 -151.99 649.666 -152.516 648.729 -153.454C647.792 -154.391 647.266 -155.663 647.266 -156.988ZM603.994 -181.983C603.994 -183.308 604.521 -184.58 605.458 -185.517C606.395 -186.455 607.666 -186.981 608.991 -186.981C610.316 -186.981 611.587 -186.455 612.524 -185.517C613.461 -184.58 613.988 -183.308 613.988 -181.983C613.988 -180.657 613.461 -179.385 612.524 -178.448C611.587 -177.51 610.316 -176.984 608.991 -176.984C607.666 -176.984 606.395 -177.51 605.458 -178.448C604.521 -179.385 603.994 -180.657 603.994 -181.983ZM560.716 -156.988C560.716 -158.314 561.243 -159.586 562.18 -160.523C563.117 -161.461 564.388 -161.987 565.713 -161.987C567.038 -161.987 568.309 -161.461 569.246 -160.523C570.183 -159.586 570.71 -158.314 570.71 -156.988C570.71 -155.663 570.183 -154.391 569.246 -153.454C568.309 -152.516 567.038 -151.99 565.713 -151.99C564.388 -151.99 563.117 -152.516 562.18 -153.454C561.243 -154.391 560.716 -155.663 560.716 -156.988ZM560.716 -107C560.716 -108.326 561.243 -109.598 562.18 -110.535C563.117 -111.473 564.388 -111.999 565.713 -111.999C567.038 -111.999 568.309 -111.473 569.246 -110.535C570.183 -109.598 570.71 -108.326 570.71 -107C570.71 -105.675 570.183 -104.403 569.246 -103.466C568.309 -102.528 567.038 -102.002 565.713 -102.002C564.388 -102.002 563.117 -102.528 562.18 -103.466C561.243 -104.403 560.716 -105.675 560.716 -107ZM733.815 292.905C733.815 291.579 734.342 290.307 735.279 289.37C736.216 288.432 737.487 287.906 738.812 287.906C740.137 287.906 741.408 288.432 742.345 289.37C743.282 290.307 743.809 291.579 743.809 292.905C743.809 294.23 743.282 295.502 742.345 296.439C741.408 297.377 740.137 297.903 738.812 297.903C737.487 297.903 736.216 297.377 735.279 296.439C734.342 295.502 733.815 294.23 733.815 292.905ZM777.087 267.91C777.087 266.585 777.613 265.313 778.55 264.376C779.487 263.438 780.758 262.912 782.083 262.912C783.409 262.912 784.68 263.438 785.617 264.376C786.554 265.313 787.08 266.585 787.08 267.91C787.08 269.236 786.554 270.508 785.617 271.445C784.68 272.383 783.409 272.909 782.083 272.909C780.758 272.909 779.487 272.383 778.55 271.445C777.613 270.508 777.087 269.236 777.087 267.91ZM777.087 217.922C777.087 216.597 777.613 215.325 778.55 214.388C779.487 213.45 780.758 212.924 782.083 212.924C783.409 212.924 784.68 213.45 785.617 214.388C786.554 215.325 787.08 216.597 787.08 217.922C787.08 219.248 786.554 220.52 785.617 221.457C784.68 222.394 783.409 222.921 782.083 222.921C780.758 222.921 779.487 222.394 778.55 221.457C777.613 220.52 777.087 219.248 777.087 217.922ZM733.815 192.928C733.815 191.603 734.342 190.331 735.279 189.394C736.216 188.456 737.487 187.929 738.812 187.929C740.137 187.929 741.408 188.456 742.345 189.394C743.282 190.331 743.809 191.603 743.809 192.928C743.809 194.254 743.282 195.526 742.345 196.463C741.408 197.4 740.137 197.927 738.812 197.927C737.487 197.927 736.216 197.4 735.279 196.463C734.342 195.526 733.815 194.254 733.815 192.928ZM690.544 217.922C690.544 216.597 691.07 215.325 692.007 214.388C692.944 213.45 694.215 212.924 695.541 212.924C696.866 212.924 698.137 213.45 699.074 214.388C700.011 215.325 700.537 216.597 700.537 217.922C700.537 219.248 700.011 220.52 699.074 221.457C698.137 222.394 696.866 222.921 695.541 222.921C694.215 222.921 692.944 222.394 692.007 221.457C691.07 220.52 690.544 219.248 690.544 217.922ZM690.544 267.91C690.544 266.585 691.07 265.313 692.007 264.376C692.944 263.438 694.215 262.912 695.541 262.912C696.866 262.912 698.137 263.438 699.074 264.376C700.011 265.313 700.537 266.585 700.537 267.91C700.537 269.236 700.011 270.508 699.074 271.445C698.137 272.383 696.866 272.909 695.541 272.909C694.215 272.909 692.944 272.383 692.007 271.445C691.07 270.508 690.544 269.236 690.544 267.91ZM820.365 192.928C820.365 191.603 820.891 190.331 821.828 189.394C822.765 188.456 824.036 187.929 825.361 187.929C826.687 187.929 827.958 188.456 828.895 189.394C829.832 190.331 830.358 191.603 830.358 192.928C830.358 194.254 829.832 195.526 828.895 196.463C827.958 197.4 826.687 197.927 825.361 197.927C824.036 197.927 822.765 197.4 821.828 196.463C820.891 195.526 820.365 194.254 820.365 192.928ZM820.365 142.94C820.365 141.614 820.891 140.343 821.828 139.405C822.765 138.468 824.036 137.941 825.361 137.941C826.687 137.941 827.958 138.468 828.895 139.405C829.832 140.343 830.358 141.614 830.358 142.94C830.358 144.266 829.832 145.537 828.895 146.475C827.958 147.412 826.687 147.939 825.361 147.939C824.036 147.939 822.765 147.412 821.828 146.475C820.891 145.537 820.365 144.266 820.365 142.94ZM777.087 117.946C777.087 116.62 777.613 115.349 778.55 114.411C779.487 113.474 780.758 112.947 782.083 112.947C783.409 112.947 784.68 113.474 785.617 114.411C786.554 115.349 787.08 116.62 787.08 117.946C787.08 119.272 786.554 120.543 785.617 121.481C784.68 122.418 783.409 122.945 782.083 122.945C780.758 122.945 779.487 122.418 778.55 121.481C777.613 120.543 777.087 119.272 777.087 117.946ZM733.815 142.94C733.815 141.614 734.342 140.343 735.279 139.405C736.216 138.468 737.487 137.941 738.812 137.941C740.137 137.941 741.408 138.468 742.345 139.405C743.282 140.343 743.809 141.614 743.809 142.94C743.809 144.266 743.282 145.537 742.345 146.475C741.408 147.412 740.137 147.939 738.812 147.939C737.487 147.939 736.216 147.412 735.279 146.475C734.342 145.537 733.815 144.266 733.815 142.94ZM863.636 117.946C863.636 116.62 864.163 115.349 865.1 114.411C866.037 113.474 867.308 112.947 868.633 112.947C869.958 112.947 871.229 113.474 872.166 114.411C873.103 115.349 873.63 116.62 873.63 117.946C873.63 119.272 873.103 120.543 872.166 121.481C871.229 122.418 869.958 122.945 868.633 122.945C867.308 122.945 866.037 122.418 865.1 121.481C864.163 120.543 863.636 119.272 863.636 117.946ZM863.636 67.958C863.636 66.6322 864.163 65.3608 865.1 64.4233C866.037 63.4859 867.308 62.9592 868.633 62.9592C869.958 62.9592 871.229 63.4859 872.166 64.4233C873.103 65.3608 873.63 66.6322 873.63 67.958C873.63 69.2838 873.103 70.5552 872.166 71.4927C871.229 72.4302 869.958 72.9568 868.633 72.9568C867.308 72.9568 866.037 72.4302 865.1 71.4927C864.163 70.5552 863.636 69.2838 863.636 67.958ZM820.365 42.964C820.365 41.6382 820.891 40.3667 821.828 39.4293C822.765 38.4918 824.036 37.9651 825.361 37.9651C826.687 37.9651 827.958 38.4918 828.895 39.4293C829.832 40.3667 830.358 41.6382 830.358 42.964C830.358 44.2897 829.832 45.5612 828.895 46.4986C827.958 47.4361 826.687 47.9628 825.361 47.9628C824.036 47.9628 822.765 47.4361 821.828 46.4986C820.891 45.5612 820.365 44.2897 820.365 42.964ZM777.087 67.958C777.087 66.6322 777.613 65.3608 778.55 64.4233C779.487 63.4859 780.758 62.9592 782.083 62.9592C783.409 62.9592 784.68 63.4859 785.617 64.4233C786.554 65.3608 787.08 66.6322 787.08 67.958C787.08 69.2838 786.554 70.5552 785.617 71.4927C784.68 72.4302 783.409 72.9568 782.083 72.9568C780.758 72.9568 779.487 72.4302 778.55 71.4927C777.613 70.5552 777.087 69.2838 777.087 67.958ZM863.636 -82.0063C863.636 -83.3321 864.163 -84.6035 865.1 -85.541C866.037 -86.4785 867.308 -87.0051 868.633 -87.0051C869.958 -87.0051 871.229 -86.4785 872.166 -85.541C873.103 -84.6035 873.63 -83.3321 873.63 -82.0063C873.63 -80.6805 873.103 -79.4091 872.166 -78.4716C871.229 -77.5342 869.958 -77.0075 868.633 -77.0075C867.308 -77.0075 866.037 -77.5342 865.1 -78.4716C864.163 -79.4091 863.636 -80.6805 863.636 -82.0063ZM906.908 -107C906.908 -108.326 907.434 -109.598 908.371 -110.535C909.308 -111.473 910.579 -111.999 911.904 -111.999C913.229 -111.999 914.5 -111.473 915.437 -110.535C916.375 -109.598 916.901 -108.326 916.901 -107C916.901 -105.675 916.375 -104.403 915.437 -103.466C914.5 -102.528 913.229 -102.002 911.904 -102.002C910.579 -102.002 909.308 -102.528 908.371 -103.466C907.434 -104.403 906.908 -105.675 906.908 -107ZM906.908 -156.988C906.908 -158.314 907.434 -159.586 908.371 -160.523C909.308 -161.461 910.579 -161.987 911.904 -161.987C913.229 -161.987 914.5 -161.461 915.437 -160.523C916.375 -159.586 916.901 -158.314 916.901 -156.988C916.901 -155.663 916.375 -154.391 915.437 -153.454C914.5 -152.516 913.229 -151.99 911.904 -151.99C910.579 -151.99 909.308 -152.516 908.371 -153.454C907.434 -154.391 906.908 -155.663 906.908 -156.988ZM863.636 -181.983C863.636 -183.308 864.163 -184.58 865.1 -185.517C866.037 -186.455 867.308 -186.981 868.633 -186.981C869.958 -186.981 871.229 -186.455 872.166 -185.517C873.103 -184.58 873.63 -183.308 873.63 -181.983C873.63 -180.657 873.103 -179.385 872.166 -178.448C871.229 -177.51 869.958 -176.984 868.633 -176.984C867.308 -176.984 866.037 -177.51 865.1 -178.448C864.163 -179.385 863.636 -180.657 863.636 -181.983ZM820.365 -156.988C820.365 -158.314 820.891 -159.586 821.828 -160.523C822.765 -161.461 824.036 -161.987 825.361 -161.987C826.687 -161.987 827.958 -161.461 828.895 -160.523C829.832 -159.586 830.358 -158.314 830.358 -156.988C830.358 -155.663 829.832 -154.391 828.895 -153.454C827.958 -152.516 826.687 -151.99 825.361 -151.99C824.036 -151.99 822.765 -152.516 821.828 -153.454C820.891 -154.391 820.365 -155.663 820.365 -156.988ZM820.365 -107C820.365 -108.326 820.891 -109.598 821.828 -110.535C822.765 -111.473 824.036 -111.999 825.361 -111.999C826.687 -111.999 827.958 -111.473 828.895 -110.535C829.832 -109.598 830.358 -108.326 830.358 -107C830.358 -105.675 829.832 -104.403 828.895 -103.466C827.958 -102.528 826.687 -102.002 825.361 -102.002C824.036 -102.002 822.765 -102.528 821.828 -103.466C820.891 -104.403 820.365 -105.675 820.365 -107ZM906.914 292.905C906.914 291.579 907.441 290.307 908.378 289.37C909.315 288.432 910.586 287.906 911.911 287.906C913.236 287.906 914.507 288.432 915.444 289.37C916.381 290.307 916.908 291.579 916.908 292.905C916.908 294.23 916.381 295.502 915.444 296.439C914.507 297.377 913.236 297.903 911.911 297.903C910.586 297.903 909.315 297.377 908.378 296.439C907.441 295.502 906.914 294.23 906.914 292.905ZM950.186 267.91C950.186 266.585 950.712 265.313 951.649 264.376C952.586 263.438 953.857 262.912 955.182 262.912C956.508 262.912 957.779 263.438 958.716 264.376C959.653 265.313 960.179 266.585 960.179 267.91C960.179 269.236 959.653 270.508 958.716 271.445C957.779 272.383 956.508 272.909 955.182 272.909C953.857 272.909 952.586 272.383 951.649 271.445C950.712 270.508 950.186 269.236 950.186 267.91ZM950.186 217.922C950.186 216.597 950.712 215.325 951.649 214.388C952.586 213.45 953.857 212.924 955.182 212.924C956.508 212.924 957.779 213.45 958.716 214.388C959.653 215.325 960.179 216.597 960.179 217.922C960.179 219.248 959.653 220.52 958.716 221.457C957.779 222.394 956.508 222.921 955.182 222.921C953.857 222.921 952.586 222.394 951.649 221.457C950.712 220.52 950.186 219.248 950.186 217.922ZM906.914 192.928C906.914 191.603 907.441 190.331 908.378 189.394C909.315 188.456 910.586 187.929 911.911 187.929C913.236 187.929 914.507 188.456 915.444 189.394C916.381 190.331 916.908 191.603 916.908 192.928C916.908 194.254 916.381 195.526 915.444 196.463C914.507 197.4 913.236 197.927 911.911 197.927C910.586 197.927 909.315 197.4 908.378 196.463C907.441 195.526 906.914 194.254 906.914 192.928ZM863.636 217.922C863.636 216.597 864.163 215.325 865.1 214.388C866.037 213.45 867.308 212.924 868.633 212.924C869.958 212.924 871.229 213.45 872.166 214.388C873.103 215.325 873.63 216.597 873.63 217.922C873.63 219.248 873.103 220.52 872.166 221.457C871.229 222.394 869.958 222.921 868.633 222.921C867.308 222.921 866.037 222.394 865.1 221.457C864.163 220.52 863.636 219.248 863.636 217.922ZM863.636 267.91C863.636 266.585 864.163 265.313 865.1 264.376C866.037 263.438 867.308 262.912 868.633 262.912C869.958 262.912 871.229 263.438 872.166 264.376C873.103 265.313 873.63 266.585 873.63 267.91C873.63 269.236 873.103 270.508 872.166 271.445C871.229 272.383 869.958 272.909 868.633 272.909C867.308 272.909 866.037 272.383 865.1 271.445C864.163 270.508 863.636 269.236 863.636 267.91ZM993.457 192.928C993.457 191.603 993.984 190.331 994.921 189.394C995.858 188.456 997.129 187.929 998.454 187.929C999.779 187.929 1001.05 188.456 1001.99 189.394C1002.92 190.331 1003.45 191.603 1003.45 192.928C1003.45 194.254 1002.92 195.526 1001.99 196.463C1001.05 197.4 999.779 197.927 998.454 197.927C997.129 197.927 995.858 197.4 994.921 196.463C993.984 195.526 993.457 194.254 993.457 192.928ZM993.457 142.94C993.457 141.614 993.984 140.343 994.921 139.405C995.858 138.468 997.129 137.941 998.454 137.941C999.779 137.941 1001.05 138.468 1001.99 139.405C1002.92 140.343 1003.45 141.614 1003.45 142.94C1003.45 144.266 1002.92 145.537 1001.99 146.475C1001.05 147.412 999.779 147.939 998.454 147.939C997.129 147.939 995.858 147.412 994.921 146.475C993.984 145.537 993.457 144.266 993.457 142.94ZM950.186 117.946C950.186 116.62 950.712 115.349 951.649 114.411C952.586 113.474 953.857 112.947 955.182 112.947C956.508 112.947 957.779 113.474 958.716 114.411C959.653 115.349 960.179 116.62 960.179 117.946C960.179 119.272 959.653 120.543 958.716 121.481C957.779 122.418 956.508 122.945 955.182 122.945C953.857 122.945 952.586 122.418 951.649 121.481C950.712 120.543 950.186 119.272 950.186 117.946ZM906.914 142.94C906.914 141.614 907.441 140.343 908.378 139.405C909.315 138.468 910.586 137.941 911.911 137.941C913.236 137.941 914.507 138.468 915.444 139.405C916.381 140.343 916.908 141.614 916.908 142.94C916.908 144.266 916.381 145.537 915.444 146.475C914.507 147.412 913.236 147.939 911.911 147.939C910.586 147.939 909.315 147.412 908.378 146.475C907.441 145.537 906.914 144.266 906.914 142.94ZM950.186 67.958C950.186 66.6322 950.712 65.3608 951.649 64.4233C952.586 63.4859 953.857 62.9592 955.182 62.9592C956.508 62.9592 957.779 63.4859 958.716 64.4233C959.653 65.3608 960.179 66.6322 960.179 67.958C960.179 69.2838 959.653 70.5552 958.716 71.4927C957.779 72.4302 956.508 72.9568 955.182 72.9568C953.857 72.9568 952.586 72.4302 951.649 71.4927C950.712 70.5552 950.186 69.2838 950.186 67.958ZM993.457 42.964C993.457 41.6382 993.984 40.3667 994.921 39.4293C995.858 38.4918 997.129 37.9651 998.454 37.9651C999.779 37.9651 1001.05 38.4918 1001.99 39.4293C1002.92 40.3667 1003.45 41.6382 1003.45 42.964C1003.45 44.2897 1002.92 45.5612 1001.99 46.4986C1001.05 47.4361 999.779 47.9628 998.454 47.9628C997.129 47.9628 995.858 47.4361 994.921 46.4986C993.984 45.5612 993.457 44.2897 993.457 42.964ZM993.457 -7.02414C993.457 -8.34991 993.984 -9.6214 994.921 -10.5589C995.858 -11.4963 997.129 -12.0229 998.454 -12.0229C999.779 -12.0229 1001.05 -11.4963 1001.99 -10.5589C1002.92 -9.6214 1003.45 -8.34991 1003.45 -7.02414C1003.45 -5.69839 1002.92 -4.42694 1001.99 -3.48947C1001.05 -2.552 999.779 -2.02533 998.454 -2.02533C997.129 -2.02533 995.858 -2.552 994.921 -3.48947C993.984 -4.42694 993.457 -5.69839 993.457 -7.02414ZM950.186 -32.0182C950.186 -33.344 950.712 -34.6154 951.649 -35.5529C952.586 -36.4904 953.857 -37.017 955.182 -37.017C956.508 -37.017 957.779 -36.4904 958.716 -35.5529C959.653 -34.6154 960.179 -33.344 960.179 -32.0182C960.179 -30.6924 959.653 -29.421 958.716 -28.4835C957.779 -27.5461 956.508 -27.0194 955.182 -27.0194C953.857 -27.0194 952.586 -27.5461 951.649 -28.4835C950.712 -29.421 950.186 -30.6924 950.186 -32.0182ZM906.914 -7.02414C906.914 -8.34991 907.441 -9.6214 908.378 -10.5589C909.315 -11.4963 910.586 -12.0229 911.911 -12.0229C913.236 -12.0229 914.507 -11.4963 915.444 -10.5589C916.381 -9.6214 916.908 -8.34991 916.908 -7.02414C916.908 -5.69839 916.381 -4.42694 915.444 -3.48947C914.507 -2.552 913.236 -2.02533 911.911 -2.02533C910.586 -2.02533 909.315 -2.552 908.378 -3.48947C907.441 -4.42694 906.914 -5.69839 906.914 -7.02414ZM906.914 42.964C906.914 41.6382 907.441 40.3667 908.378 39.4293C909.315 38.4918 910.586 37.9651 911.911 37.9651C913.236 37.9651 914.507 38.4918 915.444 39.4293C916.381 40.3667 916.908 41.6382 916.908 42.964C916.908 44.2897 916.381 45.5612 915.444 46.4986C914.507 47.4361 913.236 47.9628 911.911 47.9628C910.586 47.9628 909.315 47.4361 908.378 46.4986C907.441 45.5612 906.914 44.2897 906.914 42.964ZM950.186 -82.0063C950.186 -83.3321 950.712 -84.6035 951.649 -85.541C952.586 -86.4785 953.857 -87.0051 955.182 -87.0051C956.508 -87.0051 957.779 -86.4785 958.716 -85.541C959.653 -84.6035 960.179 -83.3321 960.179 -82.0063C960.179 -80.6805 959.653 -79.4091 958.716 -78.4716C957.779 -77.5342 956.508 -77.0075 955.182 -77.0075C953.857 -77.0075 952.586 -77.5342 951.649 -78.4716C950.712 -79.4091 950.186 -80.6805 950.186 -82.0063ZM906.914 -107C906.914 -108.326 907.441 -109.598 908.378 -110.535C909.315 -111.473 910.586 -111.999 911.911 -111.999C913.236 -111.999 914.507 -111.473 915.444 -110.535C916.381 -109.598 916.908 -108.326 916.908 -107C916.908 -105.675 916.381 -104.403 915.444 -103.466C914.507 -102.528 913.236 -102.002 911.911 -102.002C910.586 -102.002 909.315 -102.528 908.378 -103.466C907.441 -104.403 906.914 -105.675 906.914 -107ZM863.636 -32.0182C863.636 -33.344 864.163 -34.6154 865.1 -35.5529C866.037 -36.4904 867.308 -37.017 868.633 -37.017C869.958 -37.017 871.229 -36.4904 872.166 -35.5529C873.103 -34.6154 873.63 -33.344 873.63 -32.0182C873.63 -30.6924 873.103 -29.421 872.166 -28.4835C871.229 -27.5461 869.958 -27.0194 868.633 -27.0194C867.308 -27.0194 866.037 -27.5461 865.1 -28.4835C864.163 -29.421 863.636 -30.6924 863.636 -32.0182ZM993.457 -107C993.457 -108.326 993.984 -109.598 994.921 -110.535C995.858 -111.473 997.129 -111.999 998.454 -111.999C999.779 -111.999 1001.05 -111.473 1001.99 -110.535C1002.92 -109.598 1003.45 -108.326 1003.45 -107C1003.45 -105.675 1002.92 -104.403 1001.99 -103.466C1001.05 -102.528 999.779 -102.002 998.454 -102.002C997.129 -102.002 995.858 -102.528 994.921 -103.466C993.984 -104.403 993.457 -105.675 993.457 -107ZM993.457 -156.988C993.457 -158.314 993.984 -159.586 994.921 -160.523C995.858 -161.461 997.129 -161.987 998.454 -161.987C999.779 -161.987 1001.05 -161.461 1001.99 -160.523C1002.92 -159.586 1003.45 -158.314 1003.45 -156.988C1003.45 -155.663 1002.92 -154.391 1001.99 -153.454C1001.05 -152.516 999.779 -151.99 998.454 -151.99C997.129 -151.99 995.858 -152.516 994.921 -153.454C993.984 -154.391 993.457 -155.663 993.457 -156.988ZM950.186 -181.983C950.186 -183.308 950.712 -184.58 951.649 -185.517C952.586 -186.455 953.857 -186.981 955.182 -186.981C956.508 -186.981 957.779 -186.455 958.716 -185.517C959.653 -184.58 960.179 -183.308 960.179 -181.983C960.179 -180.657 959.653 -179.385 958.716 -178.448C957.779 -177.51 956.508 -176.984 955.182 -176.984C953.857 -176.984 952.586 -177.51 951.649 -178.448C950.712 -179.385 950.186 -180.657 950.186 -181.983ZM906.914 -156.988C906.914 -158.314 907.441 -159.586 908.378 -160.523C909.315 -161.461 910.586 -161.987 911.911 -161.987C913.236 -161.987 914.507 -161.461 915.444 -160.523C916.381 -159.586 916.908 -158.314 916.908 -156.988C916.908 -155.663 916.381 -154.391 915.444 -153.454C914.507 -152.516 913.236 -151.99 911.911 -151.99C910.586 -151.99 909.315 -152.516 908.378 -153.454C907.441 -154.391 906.914 -155.663 906.914 -156.988ZM1036.74 217.922C1036.74 216.597 1037.26 215.325 1038.2 214.388C1039.14 213.45 1040.41 212.924 1041.73 212.924C1043.06 212.924 1044.33 213.45 1045.26 214.388C1046.2 215.325 1046.73 216.597 1046.73 217.922C1046.73 219.248 1046.2 220.52 1045.26 221.457C1044.33 222.394 1043.06 222.921 1041.73 222.921C1040.41 222.921 1039.14 222.394 1038.2 221.457C1037.26 220.52 1036.74 219.248 1036.74 217.922ZM1080.01 192.928C1080.01 191.603 1080.53 190.331 1081.47 189.394C1082.41 188.456 1083.68 187.929 1085 187.929C1086.33 187.929 1087.6 188.456 1088.54 189.394C1089.47 190.331 1090 191.603 1090 192.928C1090 194.254 1089.47 195.526 1088.54 196.463C1087.6 197.4 1086.33 197.927 1085 197.927C1083.68 197.927 1082.41 197.4 1081.47 196.463C1080.53 195.526 1080.01 194.254 1080.01 192.928ZM1080.01 142.94C1080.01 141.614 1080.53 140.343 1081.47 139.405C1082.41 138.468 1083.68 137.941 1085 137.941C1086.33 137.941 1087.6 138.468 1088.54 139.405C1089.47 140.343 1090 141.614 1090 142.94C1090 144.266 1089.47 145.537 1088.54 146.475C1087.6 147.412 1086.33 147.939 1085 147.939C1083.68 147.939 1082.41 147.412 1081.47 146.475C1080.53 145.537 1080.01 144.266 1080.01 142.94ZM1036.74 117.946C1036.74 116.62 1037.26 115.349 1038.2 114.411C1039.14 113.474 1040.41 112.947 1041.73 112.947C1043.06 112.947 1044.33 113.474 1045.26 114.411C1046.2 115.349 1046.73 116.62 1046.73 117.946C1046.73 119.272 1046.2 120.543 1045.26 121.481C1044.33 122.418 1043.06 122.945 1041.73 122.945C1040.41 122.945 1039.14 122.418 1038.2 121.481C1037.26 120.543 1036.74 119.272 1036.74 117.946ZM1036.74 67.958C1036.74 66.6322 1037.26 65.3608 1038.2 64.4233C1039.14 63.4859 1040.41 62.9592 1041.73 62.9592C1043.06 62.9592 1044.33 63.4859 1045.26 64.4233C1046.2 65.3608 1046.73 66.6322 1046.73 67.958C1046.73 69.2838 1046.2 70.5552 1045.26 71.4927C1044.33 72.4302 1043.06 72.9568 1041.73 72.9568C1040.41 72.9568 1039.14 72.4302 1038.2 71.4927C1037.26 70.5552 1036.74 69.2838 1036.74 67.958ZM1080.01 42.964C1080.01 41.6382 1080.53 40.3667 1081.47 39.4293C1082.41 38.4918 1083.68 37.9651 1085 37.9651C1086.33 37.9651 1087.6 38.4918 1088.54 39.4293C1089.47 40.3667 1090 41.6382 1090 42.964C1090 44.2897 1089.47 45.5612 1088.54 46.4986C1087.6 47.4361 1086.33 47.9628 1085 47.9628C1083.68 47.9628 1082.41 47.4361 1081.47 46.4986C1080.53 45.5612 1080.01 44.2897 1080.01 42.964ZM1080.01 -7.02414C1080.01 -8.34991 1080.53 -9.6214 1081.47 -10.5589C1082.41 -11.4963 1083.68 -12.0229 1085 -12.0229C1086.33 -12.0229 1087.6 -11.4963 1088.54 -10.5589C1089.47 -9.6214 1090 -8.34991 1090 -7.02414C1090 -5.69839 1089.47 -4.42694 1088.54 -3.48947C1087.6 -2.552 1086.33 -2.02533 1085 -2.02533C1083.68 -2.02533 1082.41 -2.552 1081.47 -3.48947C1080.53 -4.42694 1080.01 -5.69839 1080.01 -7.02414ZM1036.74 -32.0182C1036.74 -33.344 1037.26 -34.6154 1038.2 -35.5529C1039.14 -36.4904 1040.41 -37.017 1041.73 -37.017C1043.06 -37.017 1044.33 -36.4904 1045.26 -35.5529C1046.2 -34.6154 1046.73 -33.344 1046.73 -32.0182C1046.73 -30.6924 1046.2 -29.421 1045.26 -28.4835C1044.33 -27.5461 1043.06 -27.0194 1041.73 -27.0194C1040.41 -27.0194 1039.14 -27.5461 1038.2 -28.4835C1037.26 -29.421 1036.74 -30.6924 1036.74 -32.0182Z" fill="#664DFF" fill-opacity="0.3"/>
<path d="M279.382 248.375L308.236 231.712M279.382 248.375L250.535 231.712V198.387L279.382 181.724L308.236 198.387M279.382 248.375V281.701L308.236 298.363L337.084 281.701V248.375M308.236 231.712V198.387M308.236 231.712L337.084 248.375M308.236 198.387L337.084 181.724M308.236 98.4108V131.736L279.382 148.399L250.535 131.736V98.4108M308.236 98.4108L279.382 81.7481M308.236 98.4108L337.084 81.7481M279.382 81.7481L250.535 98.4108M279.382 81.7481V48.4227M250.535 98.4108L221.687 81.7481V48.4227L250.535 31.76L279.382 48.4227M279.382 48.4227L308.236 31.76L337.084 48.4227M337.084 248.375L365.932 231.712V198.387M365.932 198.387L337.084 181.724M365.932 198.387L394.779 181.724V148.399L365.932 131.736L337.084 148.399V181.724M337.084 81.7481V48.4227M337.084 81.7481L365.932 98.4108L394.779 81.7481V48.4227M337.084 48.4227L365.932 31.76M394.779 48.4227L365.932 31.76M394.779 48.4227L423.627 31.76V-1.56538L394.779 -18.2281L365.932 -1.56538V31.76M567.878 248.375V281.701L539.031 298.363L510.176 281.701V248.375L539.031 231.712M567.878 248.375L539.031 231.712M567.878 248.375L596.726 231.712V198.387L567.878 181.724L539.031 198.387V231.712M798.672 81.7481L769.825 98.4108L740.971 81.7481V48.4227L769.825 31.76M798.672 81.7481V48.4227M798.672 81.7481L827.52 98.4108L856.368 81.7481V48.4227L827.52 31.76M798.672 48.4227L769.825 31.76M798.672 48.4227L827.52 31.76M769.825 31.76V-1.56538L798.672 -18.2281M827.52 31.76V-1.56538M827.52 -1.56538L798.672 -18.2281M827.52 -1.56538L856.368 -18.2281V-51.5535M798.672 -18.2281V-51.5535M798.672 -51.5535L827.52 -68.2162M798.672 -51.5535L769.825 -68.2162V-101.542L798.672 -118.204L827.52 -101.542M827.52 -68.2162V-101.542M827.52 -68.2162L856.368 -51.5535M827.52 -101.542L856.368 -118.204L885.222 -101.542V-68.2162L856.368 -51.5535M914.07 181.724L885.222 198.387L856.368 181.724V148.399L885.222 131.736L914.07 148.399M914.07 181.724V148.399M914.07 181.724L942.917 198.387L971.765 181.724V148.399L942.917 131.736L914.07 148.399M19.7404 298.363L48.588 281.701V248.375L19.7404 231.712L-9.10721 248.375V281.701L19.7404 298.363ZM135.138 298.363L163.985 281.701V248.375L135.138 231.712L106.29 248.375V281.701L135.138 298.363ZM135.138 -1.56538L163.985 -18.2281V-51.5535L135.138 -68.2162L106.29 -51.5535V-18.2281L135.138 -1.56538ZM452.481 248.375L481.329 231.712V198.387L452.481 181.724L423.627 198.387V231.712L452.481 248.375ZM452.481 -51.5535L481.329 -68.2162V-101.542L452.481 -118.204L423.627 -101.542V-68.2162L452.481 -51.5535ZM510.176 48.4227L539.031 31.76V-1.56538L510.176 -18.2281L481.329 -1.56538V31.76L510.176 48.4227ZM596.726 -1.56538L625.574 -18.2281V-51.5535L596.726 -68.2162L567.878 -51.5535V-18.2281L596.726 -1.56538ZM683.275 248.375L712.123 231.712V198.387L683.275 181.724L654.428 198.387V231.712L683.275 248.375ZM683.275 48.4227L712.123 31.76V-1.56538L683.275 -18.2281L654.428 -1.56538V31.76L683.275 48.4227ZM942.917 298.363L971.765 281.701V248.375L942.917 231.712L914.07 248.375V281.701L942.917 298.363ZM971.765 -51.5535L1000.62 -68.2162V-101.542L971.765 -118.204L942.917 -101.542V-68.2162L971.765 -51.5535Z" stroke="#523CDB" stroke-opacity="0.2" stroke-width="2"/>
</g>
<path d="M0 197H1090V195H0V197ZM1090 0H0H1090ZM0 0V196V0ZM1090 196V0V196Z" fill="#E1E9F8" mask="url(#path-1-inside-1_162_2954)"/>
<defs>
<clipPath id="clip0_162_2954">
<path d="M0 196H1090V20C1090 8.9543 1081.05 0 1070 0H20C8.95432 0 0 8.9543 0 20V196Z" fill="white"/>
</clipPath>
</defs>
</svg>
