<svg width="400" height="80" viewBox="0 0 400 80" fill="none" xmlns="http://www.w3.org/2000/svg">
<g clip-path="url(#clip0_173_4482)">
<path fill-rule="evenodd" clip-rule="evenodd" d="M50.6053 23.1138C47.3489 20.9404 43.5204 19.7803 39.6039 19.7803V0C47.4368 0 55.0938 2.32018 61.6067 6.66715C68.1195 11.0141 73.1956 17.1926 76.1932 24.4213C79.1906 31.65 79.975 39.6044 78.4469 47.2784C76.9187 54.9523 73.1469 62.0014 67.6081 67.534C62.0695 73.0667 55.0126 76.8344 47.3303 78.3609C39.6479 79.8873 31.6847 79.1038 24.4481 76.1097C17.2115 73.1153 11.0262 68.0449 6.67447 61.5392C2.32273 55.0334 0 47.3848 0 39.5605H19.802C19.802 43.4727 20.9633 47.297 23.1392 50.5498C25.315 53.8027 28.4077 56.3379 32.0261 57.8351C35.6443 59.3323 39.6259 59.7239 43.4671 58.9606C47.3083 58.1975 50.8366 56.3136 53.6061 53.5473C56.3754 50.7809 58.2613 47.2564 59.0253 43.4194C59.7895 39.5825 59.3974 35.6053 57.8986 31.991C56.3997 28.3766 53.8617 25.2873 50.6053 23.1138Z" fill="#664DFF"/>
<path fill-rule="evenodd" clip-rule="evenodd" d="M19.802 1.04537e-05C19.802 2.59759 19.2898 5.16973 18.2946 7.56959C17.2995 9.96943 15.8409 12.15 14.0021 13.9868C12.1633 15.8235 9.98038 17.2805 7.57788 18.2746C5.17539 19.2686 2.60042 19.7803 8.65564e-07 19.7803L0 39.5605C5.20086 39.5605 10.3508 38.5373 15.1558 36.5492C19.9608 34.5611 24.3267 31.647 28.0041 27.9734C31.6817 24.3001 34.599 19.9389 36.5893 15.1392C38.5796 10.3394 39.6039 5.19515 39.6039 0L19.802 1.04537e-05Z" fill="#664DFF"/>
<path d="M248.75 28.5874H239.142V59.0733H248.75V28.5874Z" fill="#664DFF"/>
<path d="M240.212 22.8791C241.216 23.8827 242.471 24.3845 243.978 24.3845C245.485 24.3845 246.721 23.8827 247.683 22.8791C248.648 21.8337 249.129 20.579 249.129 19.1154C249.129 17.6099 248.648 16.3553 247.683 15.3517C246.721 14.348 245.485 13.8462 243.978 13.8462C242.471 13.8462 241.216 14.348 240.212 15.3517C239.248 16.3553 238.766 17.6099 238.766 19.1154C238.766 20.579 239.248 21.8337 240.212 22.8791Z" fill="#664DFF"/>
<path d="M101.299 59.0734V14.7871H111.158V50.4169H130.814V59.0734H101.299Z" fill="#664DFF"/>
<path fill-rule="evenodd" clip-rule="evenodd" d="M148.569 59.7633C145.429 59.7633 142.582 59.0734 140.029 57.6933C137.517 56.2715 135.528 54.3478 134.063 51.9222C132.598 49.4967 131.865 46.7785 131.865 43.7675C131.865 40.7566 132.598 38.0593 134.063 35.6756C135.528 33.2919 137.517 31.41 140.029 30.0301C142.54 28.6081 145.387 27.8972 148.569 27.8972C151.751 27.8972 154.598 28.5874 157.109 29.9672C159.621 31.3473 161.61 33.2502 163.075 35.6756C164.541 38.0593 165.273 40.7566 165.273 43.7675C165.273 46.7785 164.541 49.4967 163.075 51.9222C161.61 54.3478 159.621 56.2715 157.109 57.6933C154.598 59.0734 151.751 59.7633 148.569 59.7633ZM148.569 51.0441C149.951 51.0441 151.165 50.7514 152.211 50.1659C153.258 49.5387 154.053 48.6814 154.598 47.594C155.184 46.465 155.477 45.1894 155.477 43.7675C155.477 42.3457 155.184 41.112 154.598 40.0667C154.011 38.9793 153.195 38.143 152.148 37.5575C151.144 36.9301 149.951 36.6166 148.569 36.6166C147.229 36.6166 146.036 36.9301 144.99 37.5575C143.943 38.143 143.127 38.9793 142.541 40.0667C141.954 41.154 141.661 42.4084 141.661 43.8303C141.661 45.2103 141.954 46.465 142.541 47.594C143.127 48.6814 143.943 49.5387 144.99 50.1659C146.036 50.7514 147.229 51.0441 148.569 51.0441Z" fill="#664DFF"/>
<path fill-rule="evenodd" clip-rule="evenodd" d="M172.883 70.9917C175.436 72.1625 178.388 72.748 181.737 72.748C185.003 72.748 187.912 72.0998 190.466 70.8034C193.02 69.507 195.029 67.709 196.494 65.4089C197.96 63.1089 198.693 60.3907 198.693 57.2541V28.5874H189.273V30.6356C188.572 30.0466 187.776 29.5521 186.887 29.1519C185.254 28.3573 183.391 27.96 181.298 27.96C178.493 27.96 176.002 28.6291 173.825 29.9673C171.647 31.2637 169.931 33.0619 168.675 35.3619C167.419 37.6202 166.791 40.1711 166.791 43.0149C166.791 45.8168 167.419 48.3676 168.675 50.6677C169.931 52.9677 171.647 54.7869 173.825 56.1251C176.002 57.4632 178.493 58.1324 181.298 58.1324C183.349 58.1324 185.212 57.7352 186.887 56.9406C187.698 56.5557 188.43 56.1021 189.084 55.5797V57.5051C189.084 59.6378 188.394 61.2897 187.012 62.4607C185.672 63.6317 183.809 64.217 181.423 64.217C179.497 64.217 177.844 63.8825 176.462 63.2133C175.123 62.5443 173.908 61.5615 172.82 60.2651L166.917 66.1616C168.382 68.2525 170.371 69.8626 172.883 70.9917ZM186.572 48.7231C185.609 49.3086 184.458 49.6013 183.119 49.6013C181.779 49.6013 180.607 49.3086 179.602 48.7231C178.639 48.1376 177.886 47.343 177.341 46.3394C176.797 45.294 176.525 44.1857 176.525 43.0149C176.525 41.7602 176.797 40.6312 177.341 39.6275C177.886 38.6239 178.66 37.8293 179.665 37.2438C180.669 36.6583 181.821 36.3656 183.119 36.3656C184.458 36.3656 185.609 36.6583 186.572 37.2438C187.577 37.8293 188.331 38.6239 188.833 39.6275C189.377 40.6312 189.649 41.7602 189.649 43.0149C189.649 44.2694 189.377 45.3984 188.833 46.4021C188.331 47.364 187.577 48.1376 186.572 48.7231Z" fill="#664DFF"/>
<path fill-rule="evenodd" clip-rule="evenodd" d="M218.913 59.7633C215.772 59.7633 212.925 59.0734 210.372 57.6933C207.859 56.2715 205.871 54.3478 204.406 51.9222C202.94 49.4967 202.208 46.7785 202.208 43.7675C202.208 40.7566 202.94 38.0593 204.406 35.6756C205.871 33.2919 207.859 31.41 210.372 30.0301C212.883 28.6081 215.731 27.8972 218.913 27.8972C222.093 27.8972 224.94 28.5874 227.451 29.9672C229.964 31.3473 231.952 33.2502 233.418 35.6756C234.883 38.0593 235.616 40.7566 235.616 43.7675C235.616 46.7785 234.883 49.4967 233.418 51.9222C231.952 54.3478 229.964 56.2715 227.451 57.6933C224.94 59.0734 222.093 59.7633 218.913 59.7633ZM218.913 51.0441C220.293 51.0441 221.507 50.7514 222.554 50.1659C223.6 49.5387 224.396 48.6814 224.94 47.594C225.527 46.465 225.82 45.1894 225.82 43.7675C225.82 42.3457 225.527 41.112 224.94 40.0667C224.354 38.9793 223.538 38.143 222.491 37.5575C221.487 36.9301 220.293 36.6166 218.913 36.6166C217.572 36.6166 216.378 36.9301 215.333 37.5575C214.285 38.143 213.469 38.9793 212.883 40.0667C212.297 41.154 212.004 42.4084 212.004 43.8303C212.004 45.2103 212.297 46.465 212.883 47.594C213.469 48.6814 214.285 49.5387 215.333 50.1659C216.378 50.7514 217.572 51.0441 218.913 51.0441Z" fill="#664DFF"/>
<path fill-rule="evenodd" clip-rule="evenodd" d="M271.844 59.7005C269.794 59.7005 267.909 59.3033 266.192 58.5088C265.289 58.0906 264.473 57.5914 263.745 57.011V71.9326H254.262V28.5874H263.869V30.6914C264.566 30.1219 265.341 29.6296 266.192 29.2146C267.909 28.3781 269.794 27.96 271.844 27.96C274.733 27.96 277.287 28.6501 279.505 30.0302C281.766 31.41 283.525 33.2919 284.78 35.6756C286.079 38.0594 286.727 40.7776 286.727 43.8302C286.727 46.8831 286.079 49.6013 284.78 51.985C283.525 54.3688 281.766 56.2505 279.505 57.6305C277.287 59.0106 274.733 59.7005 271.844 59.7005ZM270.087 51.0441C271.467 51.0441 272.662 50.7304 273.665 50.1031C274.713 49.4759 275.529 48.6184 276.115 47.5313C276.701 46.444 276.994 45.2103 276.994 43.8302C276.994 42.4084 276.701 41.154 276.115 40.0667C275.529 38.9793 274.713 38.143 273.665 37.5575C272.662 36.9301 271.489 36.6166 270.149 36.6166C268.81 36.6166 267.616 36.9301 266.57 37.5575C265.564 38.143 264.77 38.9793 264.184 40.0667C263.598 41.154 263.305 42.4084 263.305 43.8302C263.305 45.2103 263.576 46.444 264.121 47.5313C264.707 48.6184 265.523 49.4759 266.57 50.1031C267.616 50.7304 268.788 51.0441 270.087 51.0441Z" fill="#664DFF"/>
<path d="M295.549 59.3453C297.307 59.8054 299.085 60.0352 300.885 60.0352C304.695 60.0352 307.709 59.1572 309.929 57.4007C312.188 55.6444 313.319 53.2817 313.319 50.3124C313.319 48.3888 312.964 46.8414 312.252 45.6706C311.541 44.4579 310.62 43.496 309.489 42.7851C308.358 42.0742 307.164 41.5094 305.909 41.0913C304.653 40.6731 303.459 40.3177 302.331 40.0249C301.2 39.7322 300.279 39.3977 299.566 39.0213C298.855 38.6449 298.499 38.1431 298.499 37.5158C298.499 36.9303 298.772 36.4912 299.315 36.1985C299.859 35.864 300.675 35.6968 301.764 35.6968C302.895 35.6968 304.046 35.9267 305.218 36.3868C306.432 36.8467 307.521 37.6414 308.483 38.7705L313.947 33.2504C312.566 31.4939 310.766 30.1766 308.547 29.2985C306.37 28.3785 303.984 27.9185 301.388 27.9185C298.919 27.9185 296.762 28.3366 294.921 29.1729C293.077 30.0094 291.653 31.1594 290.65 32.623C289.646 34.0448 289.143 35.7386 289.143 37.7041C289.143 39.5441 289.499 41.0705 290.21 42.2833C290.921 43.454 291.844 44.3742 292.972 45.0432C294.103 45.7124 295.297 46.2351 296.552 46.6114C297.808 46.9878 299.002 47.3432 300.133 47.6779C301.261 47.9707 302.184 48.3261 302.895 48.7443C303.65 49.1207 304.026 49.6852 304.026 50.4378C304.026 51.0233 303.711 51.4832 303.083 51.8179C302.497 52.1524 301.64 52.3197 300.509 52.3197C298.875 52.3197 297.368 52.027 295.988 51.4415C294.606 50.8143 293.412 49.957 292.408 48.8697L286.945 54.3897C287.992 55.5188 289.248 56.5226 290.713 57.4007C292.22 58.237 293.832 58.8852 295.549 59.3453Z" fill="#664DFF"/>
<path d="M331.422 59.7633C328.618 59.7633 326.127 59.1988 323.951 58.0697C321.814 56.8987 320.141 55.3096 318.927 53.3023C317.711 51.2532 317.105 48.9114 317.105 46.2767V28.5874H326.713V46.1513C326.713 47.1967 326.88 48.0959 327.216 48.8485C327.592 49.6014 328.137 50.1869 328.848 50.605C329.561 51.0232 330.418 51.2323 331.422 51.2323C332.846 51.2323 333.977 50.7931 334.814 49.9149C335.652 48.9949 336.07 47.7404 336.07 46.1513V28.5874H345.678V46.214C345.678 48.8905 345.072 51.2532 343.856 53.3023C342.642 55.3096 340.969 56.8987 338.832 58.0697C336.697 59.1988 334.228 59.7633 331.422 59.7633Z" fill="#664DFF"/>
<path d="M360.062 28.5874H350.454V59.0733H360.062V41.2584C360.062 40.213 360.272 39.3348 360.69 38.6239C361.151 37.913 361.759 37.3692 362.511 36.993C363.266 36.5747 364.123 36.3656 365.086 36.3656C366.468 36.3656 367.618 36.8047 368.539 37.683C369.503 38.5193 369.985 39.7112 369.985 41.2584V59.0733H379.593V41.2584C379.593 40.213 379.802 39.3348 380.22 38.6239C380.682 37.913 381.288 37.3692 382.042 36.993C382.794 36.5747 383.654 36.3656 384.616 36.3656C385.998 36.3656 387.149 36.8047 388.07 37.683C389.032 38.5193 389.513 39.7112 389.513 41.2584V59.0733H399.123V40.1921C399.123 37.6412 398.579 35.4666 397.49 33.6684C396.442 31.8282 394.998 30.4274 393.157 29.4656C391.357 28.4618 389.284 27.96 386.939 27.96C384.553 27.96 382.396 28.4828 380.472 29.5283C379.22 30.1943 378.127 31.054 377.191 32.1071C376.317 31.0055 375.256 30.1041 374.002 29.4027C372.329 28.441 370.424 27.96 368.29 27.96C366.028 27.96 363.998 28.441 362.198 29.4027C361.414 29.8029 360.703 30.2822 360.062 30.8406V28.5874Z" fill="#664DFF"/>
</g>
<defs>
<clipPath id="clip0_173_4482">
<rect width="400" height="79.121" fill="white"/>
</clipPath>
</defs>
</svg>
